/* XPM */
static char *_7a0a05cb80d4deb880cfaa17bb2b3d1TGij9ZPQ8CK82NqS[] = {
/* columns rows colors chars-per-pixel */
"48 48 198 2 ",
"   c None",
".  c #070707",
"X  c #0B0407",
"o  c #070807",
"O  c #01010B",
"+  c #0C020C",
"@  c #070808",
"#  c #090B0A",
"$  c #150007",
"%  c #1B0004",
"&  c #14010C",
"*  c #1C010B",
"=  c #0B100F",
"-  c #010511",
";  c #080411",
":  c #000913",
">  c #0C0813",
",  c #0B0D1A",
"<  c #140410",
"1  c #1D0612",
"2  c #140912",
"3  c #1B0813",
"4  c #1D0D1A",
"5  c #0D1513",
"6  c #0F1917",
"7  c #0F1D1A",
"8  c #151211",
"9  c #11111D",
"0  c #1B111F",
"q  c #101B19",
"w  c #210007",
"e  c #2A0106",
"r  c #24010C",
"t  c #2C020C",
"y  c #250C0B",
"u  c #330205",
"i  c #3C0106",
"p  c #34020C",
"a  c #3B020C",
"s  c #230511",
"d  c #2C0511",
"f  c #240914",
"g  c #2C0914",
"h  c #240D1A",
"j  c #2B0D1B",
"k  c #340511",
"l  c #3B0511",
"z  c #330914",
"x  c #3C0914",
"c  c #330C19",
"v  c #3B0D1B",
"b  c #2E111D",
"n  c #33121B",
"m  c #3D121E",
"M  c #11241F",
"N  c #1C1525",
"B  c #231623",
"V  c #2A1D2C",
"C  c #321623",
"Z  c #351929",
"A  c #460105",
"S  c #4E0607",
"D  c #43020C",
"F  c #4B020D",
"G  c #4D0A0C",
"H  c #510507",
"J  c #590006",
"K  c #53020C",
"L  c #5B020D",
"P  c #430511",
"I  c #4B0512",
"U  c #440914",
"Y  c #4B0914",
"T  c #430D1A",
"R  c #4E0D19",
"E  c #530411",
"W  c #5C0512",
"Q  c #530914",
"!  c #5B0914",
"~  c #550C1B",
"^  c #5C0C1A",
"/  c #421715",
"(  c #44121E",
")  c #4F121E",
"_  c #501111",
"`  c #5A1716",
"'  c #55121D",
"]  c #5B121D",
"[  c #640000",
"{  c #64020C",
"}  c #6B020D",
"|  c #730405",
" . c #73020B",
".. c #7B030C",
"X. c #770A09",
"o. c #620512",
"O. c #6C0512",
"+. c #630A15",
"@. c #6A0A14",
"#. c #650C1C",
"$. c #690C18",
"%. c #720512",
"&. c #7B0512",
"*. c #720914",
"=. c #7B0A13",
"-. c #700C1A",
";. c #7D0E1C",
":. c #691014",
">. c #66141D",
",. c #6B101E",
"<. c #681918",
"1. c #711010",
"2. c #721917",
"3. c #7C141D",
"4. c #431422",
"5. c #4A1523",
"6. c #4D1926",
"7. c #521222",
"8. c #5C1323",
"9. c #5C1C2D",
"0. c #681423",
"q. c #691E23",
"w. c #691D2F",
"e. c #741427",
"r. c #7B1624",
"t. c #701F30",
"y. c #46202F",
"u. c #4A212F",
"i. c #51212F",
"p. c #432032",
"a. c #4F2634",
"s. c #63232F",
"d. c #6A222E",
"f. c #642231",
"g. c #2C384C",
"h. c #3B3143",
"j. c #830007",
"k. c #8D0407",
"l. c #84030D",
"z. c #8B040D",
"x. c #960305",
"c. c #9D0203",
"v. c #93030E",
"b. c #9B040D",
"n. c #9C0B0D",
"m. c #840614",
"M. c #8D0513",
"N. c #810914",
"B. c #8C0B14",
"V. c #830E1C",
"C. c #8D0E1B",
"Z. c #970512",
"A. c #9A0511",
"S. c #920A15",
"D. c #9D0814",
"F. c #9C071A",
"G. c #910C1B",
"H. c #82131D",
"J. c #8A1219",
"K. c #8A1414",
"L. c #9A1216",
"P. c #961318",
"I. c #A3030E",
"U. c #AC040D",
"Y. c #B2040D",
"T. c #BB030E",
"R. c #A40412",
"E. c #AB0510",
"W. c #A90916",
"Q. c #AC0919",
"!. c #BE0611",
"~. c #B40915",
"^. c #BB0E16",
"/. c #A71313",
"(. c #AA1312",
"). c #A31319",
"_. c #AB111C",
"`. c #A01D1F",
"'. c #861625",
"]. c #891721",
"[. c #821E23",
"{. c #881F23",
"}. c #831C2B",
"|. c #9D1424",
" X c #901E24",
".X c #931A29",
"XX c #A81625",
"oX c #812A39",
"OX c #992534",
"+X c #C2030D",
"@X c #CB020D",
"#X c #D4010B",
"$X c #D90109",
"%X c #C90512",
"&X c #C30A12",
"*X c #C40E1B",
"=X c #CC1313",
"-X c #C1141B",
/* pixels */
". . @ . . o . . . @ . . . @ @ . . @ . A k.Y.B.Q m.I.b.X.u o . . @ @ . . . . . . . . o . . #     ",
". . . . . . . @ . o . . X.J.~.#XW.[.{.*.J x s d Q { L &.[.{.&X$X!.:.. @ . . o . . . . . . @     ",
"o @ . . . . . . . . S T.j.N 7. .D w p p * * t ! &.{ O O a { }  .] Z ..| @ @ . o @ . . o . @     ",
". . . . . @ . . .  .V.*.u Y +.I w & D o.K w s U K u * K } F O & ! G. .I ' 6 @ . . . @ o . @     ",
"o . . o . . @ . j.x.' 5.x p K K D r + P F l k P p O p  .} O t L  .J O 7.XX/.5 5 5 5 . . . .     ",
". . . o . o o ..@X .L @.*.D + a E U * t Y I p p t + W } r f +.{ & O L E.+Xz.L.6 6 6 6 6 5 5     ",
". . o o o # { +X&.D t d d F F * D F r 1 x F D t + w L E : Q } t t }  .D K g O.n.. o # @ o o     ",
"o . o o o u T. .a k x k X * D a * D Y g t L L p O F L g P } F t { { % z R l t O.l.o o . . .     ",
". . o . @ Y.&.i n u.x * k s t P p t D t t K L t & E Q 1 { } * P K t P P d 4.m e *.<.6 # # =     ",
". . . @ E.&.D p 6.v * t U t & p a * D F a a D p t I p p { F * K a & l p * d 4.x A @.5 5 6 5     ",
". . . X.M.t k T l & r p w r O g Q a p D a t p r t d * D K p I E X * r * l r t P k k *.. . #     ",
". . . c.a p T a w r p 1 h b n g x l r r r w t t r & O D D r P a B 4.x x K { * D T k D X.# 5     ",
". . x.d.n v k t r p t r ( n m t w r =X* d z t r * r x a =Xa P f v T ^ ^ J &.w D p U 3 f.# M     ",
". @ |.g.v c t t t t r r x t t r r t * & n m d % * ] 3.L & a U t i D a D { { x P t k z h.OX#     ",
". k.e.V p k r t p t r z d s w * r * d k z x t + p ! K Y $.Y p D a F a K F U Y a p p P B .X5     ",
". Q.U e a r t p t t f g p t * s s * t l x E E p * k E *.O.a I W p D  .{ 3 I x D A p a p o.).    ",
"a C.& a a r t t t t t =Xt r & s 1 > 9 g e T ~ u , v { L h ; x W a p { =Xd a D F a a a U k _.    ",
"z.#.+ D r t t r t d r d 1 * * < k T =X8.( f P p s h #.'.=X^ W { L L U $.D p I a p a t D k m.    ",
"E.g r p w r d g g g w j 1 r =Xl E E Y ! 8.~ a r & T '.C.&.o.%.M...} T #.K p U a D a t p a P -X  ",
"R.+ p t & r z l d r r C 1 * k ^ E a t e P *.L 3 d +.&.K A D L =XR.{ P 0.W * D a x a r & P * ~.  ",
"Z.& l c k s d d s w t c s * U W p & /.+ t J G - t }  .t /.r r &.Q...P -.{ O d x x t t 4.! D W.  ",
"M.+ p g U * t d h < r k f 1 Y P w /././.d s p _ G F F /././.: W Z...D O.K O 4.' F a p ^ D D ~.  ",
"M.< a Q x * t * =Xs * l =X& l p /././././.* h d.H.{ /././././.K v.=Xk O.a 1 =Xk a F p J a W *X  ",
"z.r Q E p t r p U s 1 g s * a I 3 /././.s p Q e.Q.I.L /././.d m.I.{ I o.s 3 Y F F F F D L =.R.  ",
"l.& F a a t & P F d d t r k p I 7.y./.2 * F W W z.R.} : /.a.}.F.b.m.{ { 2 a D { F t F P ! W  .  ",
"M.+ p p a r * t f g t t r p a =X~ f.i.f $ F D O u *.o.f s.oX'.} } ..{ K p F l a r * p P P t E.  ",
"b.< p p * * r a b h r r r t t p i A =Xl * D D + r W W { =.{ [ =XL { J p p z ( D D w 3 x p K %X  ",
"U.a F D c & * a g h r r r t p l x r % a t l Y z R @.} ..=Xa  .o.W { F p t j v F F < R { K O.@X  ",
"c.K D a x c s w a x s t =Xr l l p p t p p s c z Q @. .l.} { { E o.D a a r l D r l Q #.o.K } &X  ",
"{ } O t f l P P W P r t t d d p t w r a k d * p D J  .z. .K L ! D i D a t t ! ! o.o.D J t l.    ",
"o b.0 z k & l I F r p k z x t w t =Xr P P x l E W o.&.z. .I @.a a K =XD D d U ^ L t t o.( ^.    ",
"o n.p.b a r r t * * P x a p a p t r d I Q Y W %.%.%...Z.=X! L a L K F D I U t a p t F d w.`.    ",
"o S V.4 p t t p p p p k a p a p t r l Y W K K L } ..l.Z.m.L L D K K L D U D a D D p F h |.q     ",
". . c.v d p p p t t p p p a a t t k x E L L K F } l.v.Z.z.L K a D K K Y F a a D F D k 5.L.6     ",
"# # G m.g p p p p p p l a a k r t p p a a D K K } { { ..} F K p I S Y Y W F a D D A j J.# #     ",
"5 6 6 D.^ f a z d p p P F a l l F D t a t r a D I F { l.z.} F F o.F D L K F D p D x 0.K.6 M     ",
". . . . z.T z x t t p F L a t I L D d D L K D ~ @. .l.z.%.{ F L E a F { L D a F P ' P.q q q     ",
"o . o o % ;.m p a p p K F d d a a t t D { &.=.&.v.A.l.{ p * x D a a D K J a L Q T V.= # 5 5     ",
". . . # 5 1.=.l D D a a g l p p a p a p O ! S.b.R.&.O * D P U I a a K F D L O.x =.8 5 5 # #     ",
". . . # # 6 2.=.P p a U d a F a D D p a z 1 F L F p p F I l F F F a a D F I x =./ q q q 5 5     ",
"o . . . . X # ` =.F x U t p a r a F a k * K J p a { D z Q F D a a F D a U R N.y 6 6 6 6 # 8     ",
". . . . . . . @ @ B.>.k i i a a a K D D w E  .F F o.F x D F F K K H A - ^ L.q # . o o o @ @     ",
". . . . o . . . o o z.S.5.N s u a l a k + I L p F o.x t a a K F t 0 C $.K.5 # . . . . o @ @     ",
"o . o . . . . . o o o o ].t.T r g p x U p D W D I K D I U D p % f 9.[.. . . . . . o . . @ @     ",
". @ . . . . o . . . . . o o k.S.:.Y p r + D L a D K p * a R +.S.z.. . . . # . . . . @ . @ @     ",
". . . . . . . @ . . @ . o o @ @ e z.E.b...I.Z.O.z.I.z.v.Y.I.G o . . . . . o . . . . . o o @     ",
". . . o @ . . . . o . . . . @ o . . . . . . . . . . . . o o @ . . . @ . . . . . . @ . . . @     ",
". . @ . . . . . @ . @ . o . o o . . . . . . . . . . . . X . . . @ . . . . . @ . . . . . o @     "
};
