/* XPM */
static char *_7509acfe9a04e33a343f65a63a6a335l5E8kxOkfbU5dKUG[] = {
/* columns rows colors chars-per-pixel */
"48 48 197 2 ",
"   c None",
".  c #070707",
"X  c #0B0205",
"o  c #070807",
"O  c #01010B",
"+  c #0C020C",
"@  c #070808",
"#  c #090B0A",
"$  c #140007",
"%  c #1B0005",
"&  c #14010B",
"*  c #1C010B",
"=  c #0B100F",
"-  c #010511",
";  c #080411",
":  c #000913",
">  c #0C0813",
",  c #0B0D1A",
"<  c #140410",
"1  c #1C0611",
"2  c #140912",
"3  c #1B0813",
"4  c #1D0D1A",
"5  c #0D1513",
"6  c #0F1917",
"7  c #0F1D1A",
"8  c #151211",
"9  c #11111D",
"0  c #1B111F",
"q  c #101B19",
"w  c #210007",
"e  c #2A0106",
"r  c #24010C",
"t  c #2C020C",
"y  c #250C0B",
"u  c #330205",
"i  c #3C0106",
"p  c #34020C",
"a  c #3B020C",
"s  c #230511",
"d  c #2C0511",
"f  c #240914",
"g  c #2C0914",
"h  c #230C1A",
"j  c #2B0D1B",
"k  c #340511",
"l  c #3B0511",
"z  c #330914",
"x  c #3C0914",
"c  c #330C19",
"v  c #3B0D1B",
"b  c #2E111D",
"n  c #33121B",
"m  c #3D121E",
"M  c #11241F",
"N  c #1C1525",
"B  c #231623",
"V  c #251B26",
"C  c #2A1D2C",
"Z  c #321623",
"A  c #351929",
"S  c #460105",
"D  c #4E0607",
"F  c #43020C",
"G  c #4B020D",
"H  c #4D0A0C",
"J  c #510507",
"K  c #590006",
"L  c #53020C",
"P  c #5B020D",
"I  c #430511",
"U  c #4B0512",
"Y  c #440914",
"T  c #4B0914",
"R  c #430D1A",
"E  c #4E0D19",
"W  c #530411",
"Q  c #5C0512",
"!  c #530914",
"~  c #5B0914",
"^  c #550C1B",
"/  c #5C0C1A",
"(  c #421715",
")  c #44121E",
"_  c #4F121E",
"`  c #501111",
"'  c #5A1716",
"]  c #55121D",
"[  c #5B121D",
"{  c #630003",
"}  c #64020C",
"|  c #6B020D",
" . c #730405",
".. c #73020B",
"X. c #7B030C",
"o. c #770A09",
"O. c #620512",
"+. c #6C0512",
"@. c #630A15",
"#. c #6A0A14",
"$. c #650C1C",
"%. c #690C18",
"&. c #720512",
"*. c #7B0512",
"=. c #720914",
"-. c #7B0A13",
";. c #700C1A",
":. c #7D0E1C",
">. c #691014",
",. c #66141D",
"<. c #6B101E",
"1. c #681918",
"2. c #711010",
"3. c #721917",
"4. c #7C141D",
"5. c #431422",
"6. c #4A1523",
"7. c #4D1926",
"8. c #531322",
"9. c #5C1323",
"0. c #5C1C2D",
"q. c #681423",
"w. c #691E23",
"e. c #691D2F",
"r. c #741427",
"t. c #7A1524",
"y. c #701F30",
"u. c #46202F",
"i. c #4A212F",
"p. c #51212F",
"a. c #432032",
"s. c #4F2634",
"d. c #63232F",
"f. c #6A222E",
"g. c #642231",
"h. c #2C384C",
"j. c #3B3143",
"k. c #830007",
"l. c #8D0407",
"z. c #84030D",
"x. c #8B040D",
"c. c #960305",
"v. c #9D0203",
"b. c #93030E",
"n. c #9B040D",
"m. c #9C0B0D",
"M. c #840614",
"N. c #8D0513",
"B. c #830A14",
"V. c #8C0B14",
"C. c #830E1C",
"Z. c #8D0E1B",
"A. c #960513",
"S. c #9A0511",
"D. c #920A15",
"F. c #9D0814",
"G. c #9C071A",
"H. c #910C1B",
"J. c #82131D",
"K. c #8A1219",
"L. c #8A1414",
"P. c #9A1216",
"I. c #961318",
"U. c #A3030E",
"Y. c #AC040D",
"T. c #B2040D",
"R. c #BB030E",
"E. c #A40412",
"W. c #AB0510",
"Q. c #A90916",
"!. c #AC0919",
"~. c #BE0611",
"^. c #B40915",
"/. c #BB0E16",
"(. c #AA1312",
"). c #A31319",
"_. c #AB111C",
"`. c #A01D1F",
"'. c #861625",
"]. c #891721",
"[. c #821E23",
"{. c #881F23",
"}. c #831C2B",
"|. c #9D1424",
" X c #901E24",
".X c #931A29",
"XX c #A81625",
"oX c #812A39",
"OX c #992534",
"+X c #C2030D",
"@X c #CB020D",
"#X c #D4010B",
"$X c #D90109",
"%X c #C90512",
"&X c #C30A12",
"*X c #C40E1B",
"=X c #C1141B",
/* pixels */
". . . . . . @ . . @ . . . . . . . @ . F l.Y.V.! B.U.n.o.u . o . o . o @ . . . . . . . . . @     ",
". . @ . o . . . o . . . o.K.^.#XQ.[.{.=.P I r d ! } P &.[. X&X$X~.%.. @ . . o o o . . o o @     ",
"o @ . . . . . . . . D +Xk.N 8...F * p u & * t ~ *.} O O a } | ..^ A X. .@ # . o @ o . . o @     ",
". . . . . @ . o @ ..C.=.u Y $.G w * F O.L r s I J a * L | G O $ @.H. .T ] 6 o X . . @ o o @     ",
". . o o . . . . k.c.8.6.l p L L F r + l G l z I p O p ..| O t P ..J O 8.XX(.5 5 5 5 . X . .     ",
". o . o . @ o X.@X..P #.;.F + F L I r r T W p p t + Q | r h @.} + + P Y.+Xl.P.7 6 6 6 6 5 5     ",
". o o o o # | R.M.i t d t G F * F G t 1 l I F u + w P W : W | t t ..| F L g &.n.. @ # @ o o     ",
". . o o o u R...a k x k X * F a * I T g t P P p O G P d Y | G t } } * z E l t #.k.# @ . . .     ",
". . . o @ T.&.S b i.x * z r r I p t F t t L P t & W ! s } | * F W t I I d 6.c e -.1.q # = =     ",
"o . . . W.-.F p 7.v * t Y t * k a * I U a a F u t T d p } G * W a $ l p * s 5.v i #.5 5 5 6     ",
". . . o.N.t k Y l $ r p w r O d ! a p F a t p r t t * F L p T L X * r * l r t I l k #.. X #     ",
". . . U.a p R a w r p 3 h b n g l a r r w r t t r & + a F r F l B 5.x x L } w F R k i o.= 5     ",
". . c.f.n v x t t p t s R n ) d w t r & d z t r * r x a w a I h v R ^ / K *.w F p Y 3 g.# 7     ",
". . |.h.c z r t p r r r l t t r r d * $ n m g % * [ 4.P $ l I t i F F I } } l Y t k z j.OX#     ",
". l.r.C l p r t t t r z g r * * r * d z z x t + p ~ U W $.! p F i U i L G Y T a p p l B .X5     ",
". Q.Y e a r t p d t f d a t * s s * t l l W W p * k W =.+.i U Q p F ..} 3 T a F G p a p O.).    ",
"a Z.1 a a r t t d p s r t r & s 1 > 9 g e R ^ u , m } Q h ; F Q a a } @.t l F G F a p G k _.    ",
"N.~ + a t t t w t t r g 1 * & 1 k R 8.9.R j l a 3 f $.'.r./ L O.P P x %.F p U p p a t Y k M.    ",
"W.d r a * r d z g d w j 1 r < l ! W ! ! 9.^ a t * R t.Z.*.O.&.D.X.| R $.L p Y l a a t t a I =X  ",
"E.+ p t $ r z k d r r b f * k Q W i t t Y =.L 3 t @.*.P S F Q A.F.| l <.Q w F a x a t $ I * ^.  ",
"A.& l c k s d d s * t z s * T ~ p $ r ; t P H O t ....r & r r *.!.X.U ;.} O p v Y t d 6.W G Q.  ",
"N.+ p g R * t d h 1 r k s 1 Y I r & * * t r d H H G G p * 1 : Q A...F +.L O ) ] G a k ! I i ^.  ",
"N.1 a ! I * t * h s % z f < I p $ $ & * f * h f.J.} p * 1 r O L b.P d +.p f 8.z p L p K a ~ *X  ",
"z.r ! W p r r k I s 1 z g $ a U 3 O X * s p E t._.U.P + % O s N.W.} U #.* 3 U G G G G F P B.F.  ",
"z.& U l a t * F G t d t r p a I 8.a.V 2 * F Q Q x.E.| : V s.}.G.b.z.} } 3 a F } G t G a ~ Q ..  ",
"N.+ u p a r * t h g p r r k k u ^ g.p.f * G F O u &.} h d.oX'.| | M.| G t G a a r * p Y I t W.  ",
"U.& p t * w r p b h r r r t t k i S U l * F F X r O.Q } -.} { P P } P a p x m F G r 1 l p P %X  ",
"Y.a G F c < * a g h r t r t u l l t % i t l ^ z E @.| X.K S +.} P } F p t j v G G < ^ } G +.@X  ",
"n.L F i v c s w a x s r r r l k p p d p p d c z ! @...z.| P } W O.G p p r l F t a ! $.} L } &X  ",
"} | O t s x I I Q I r t t d d p t w t p p d * t G P X.z...P O.~ F a G a t t ! ~ ~ @.F P t z.    ",
"o n.0 x g * l U T w p a z l u r t r r F Y x l G Q Q ..b...T @.i i L F F I t Y ~ Q t t } ) /.    ",
"o m.a.j a r w t * r l l x p a t t r k Y ! U Q &.&.&.M.A.B.~ Q i P L G F U Y t a p r G d e.`.    ",
". D C.4 p t t p p p p k a p a p t r l E L L L P ..X.M.A.V.P P F L L P F Y F i F F a F h |.q     ",
". . v.v d p u k t t p p p a a t t k x W P P G G } z.A.n.z.P L p G L J Y I F a I G i a 6.P.q     ",
"# @ H M.g p e l p u k l a a k s t k p i i F L L } } } X...G L k G L E U P G a F F F j Z.# #     ",
"6 6 6 F./ g l d t p k F G a l a G F t a t t a I W G } z.z.| G G Q G F P W G F p F x q.L.6 M     ",
". . . X x.R c x t p u U P a t U P F d I P L I ~ #...z.N.&.} G Q W i G } P F a G I ] I.q q q     ",
". . o o % :.v a p p p L G d d a a t t F } *.-.&.N.n.z.} p w a F a a F G P F P ! R C.= # 5 5     ",
". . . = 5 2.*.z F F a a g k p p l p i p O ~ A.n.U.*.O * a I T T a a L G F P | x -.8 5 5 # #     ",
". . . o # 6 3.-.I p a Y k a G a F F p a k 3 G P G a p F U l G G G a a G F T x -.( q q q 5 5     ",
"o o . . . @ # ' -.G l I t l a r F F a k * J P p i } F k ! G G a a T G a l E B.y 6 6 6 6 = 8     ",
"o o . . . . . @ @ I.,.z u i a a a L F F r W ..G W O.I I F S G L L J S O / P.q # . o o o . o     ",
"o o . . . . . . . @ l.V._ N s p a l p p & U Q p G @.x d l a U G t 0 Z $.V.6 # . . . . . o @     ",
"X o . . . . . . . . @ @ ].y.R r f p Y T t F P F F L i T T F p % s 0.[.. . . . . . o . o . @     ",
"@ . . . . o . . . o . . o . x.D.>.T p r + F P F F L a * a E %.V.x.o o . @ @ @ . @ . . . @ @     ",
". . . @ . . @ . . . . o o o o o e x.W.A.X.U.A.+.z.E.z.b.T.U.J o o o . . X o . . . . . @ . @     ",
". @ . . @ . . . . o . . . . o o . . . . . . o X . . . . . . . . . o . o o o o @ . . o . . @     ",
". . . . . . . @ . . . o . o . . . . . . . . o o o @ . . . . @ . . . . . o o o . o . . . . @     "
};
