/* XPM */
static char *f526f019a1174d53bfd5fda48a4598cb54IQwwWuQJW2SXPa[] = {
/* columns rows colors chars-per-pixel */
"49 48 182 2 ",
"   c None",
".  c #000006",
"X  c #0D0004",
"o  c #01010B",
"O  c #0C020C",
"+  c #140007",
"@  c #1C0005",
"#  c #14010B",
"$  c #1C010B",
"%  c #010511",
"&  c #080411",
"*  c #000913",
"=  c #0C0813",
"-  c #0B0D1A",
";  c #140410",
":  c #1C0611",
">  c #140912",
",  c #1B0813",
"<  c #1D0D1A",
"1  c #11111D",
"2  c #1B111F",
"3  c #210007",
"4  c #2B0006",
"5  c #24010C",
"6  c #2C020C",
"7  c #320005",
"8  c #3C0106",
"9  c #34020C",
"0  c #3B020C",
"q  c #230511",
"w  c #2C0511",
"e  c #240914",
"r  c #2C0914",
"t  c #230C1A",
"y  c #2B0D1B",
"u  c #340511",
"i  c #3B0511",
"p  c #330914",
"a  c #3C0914",
"s  c #330C19",
"d  c #3B0D1B",
"f  c #2E111D",
"g  c #33121B",
"h  c #3D121E",
"j  c #1C1525",
"k  c #231623",
"l  c #251B26",
"z  c #2A1D2C",
"x  c #331623",
"c  c #351929",
"v  c #460105",
"b  c #43020C",
"n  c #4B020D",
"m  c #4E0B0D",
"M  c #590006",
"N  c #53020C",
"B  c #5B020D",
"V  c #430511",
"C  c #4B0512",
"Z  c #440914",
"A  c #4B0914",
"S  c #430D1A",
"D  c #4E0D19",
"F  c #530411",
"G  c #5C0512",
"H  c #530914",
"J  c #5B0914",
"K  c #550C1B",
"L  c #5D0C1A",
"P  c #44121E",
"I  c #4F121E",
"U  c #501111",
"Y  c #55121F",
"T  c #5B121D",
"R  c #630003",
"E  c #64020C",
"W  c #6B020D",
"Q  c #73020C",
"!  c #7B020C",
"~  c #620512",
"^  c #6D0512",
"/  c #620A14",
"(  c #6B0A15",
")  c #650C1C",
"_  c #690C18",
"`  c #720512",
"'  c #7B0512",
"]  c #730914",
"[  c #7A0915",
"{  c #730E1B",
"}  c #6B131E",
"|  c #7C141D",
" . c #431422",
".. c #4B1523",
"X. c #4D1926",
"o. c #531322",
"O. c #5C1323",
"+. c #6C1424",
"@. c #691E23",
"#. c #6A1D2F",
"$. c #751427",
"%. c #7A1524",
"&. c #621E30",
"*. c #46202F",
"=. c #4A212F",
"-. c #51212F",
";. c #432032",
":. c #4F2634",
">. c #63232F",
",. c #6B222F",
"<. c #652232",
"1. c #6D2434",
"2. c #782234",
"3. c #2C384C",
"4. c #3C3144",
"5. c #850007",
"6. c #84020E",
"7. c #8B020E",
"8. c #93030E",
"9. c #9B020E",
"0. c #840613",
"q. c #8D0513",
"w. c #870B16",
"e. c #8B0A16",
"r. c #8E0E1D",
"t. c #960613",
"y. c #9B0512",
"u. c #910815",
"i. c #980A14",
"p. c #9C0B17",
"a. c #9C071A",
"s. c #910C1B",
"d. c #9B0F1D",
"f. c #82151B",
"g. c #A20005",
"h. c #A3020E",
"j. c #B00000",
"k. c #BD0003",
"l. c #BC010C",
"z. c #A30411",
"x. c #AB0412",
"c. c #A10913",
"v. c #AC0815",
"b. c #A30D18",
"n. c #AC0919",
"m. c #BD0615",
"M. c #B50817",
"N. c #BC0A14",
"B. c #BC0B19",
"V. c #A2151E",
"C. c #A8101D",
"Z. c #B1121D",
"A. c #8D0E22",
"S. c #861423",
"D. c #841E24",
"F. c #8A1F24",
"G. c #821B2D",
"H. c #931F25",
"J. c #9B182A",
"K. c #A71322",
"L. c #A61529",
"P. c #B01727",
"I. c #812A39",
"U. c #B42839",
"Y. c #C70005",
"T. c #C2030F",
"R. c #CE000B",
"E. c #CB010E",
"W. c #D3030F",
"Q. c #D6000C",
"!. c #D5010F",
"~. c #DC010C",
"^. c #DA010B",
"/. c #C30612",
"(. c #CC0412",
"). c #C00C16",
"_. c #C50D1B",
"`. c #D10612",
"'. c #DB0313",
"]. c #D10A16",
"[. c #E40009",
"{. c #C92F44",
/* pixels */
"                                          Q.c./ i.(.                                              ",
"                          K.N.^.v.D.F.] B i q w F ~ E ` D.H./.[.`.                                ",
"                      ~.5.j o.Q b 5 9 9 # @ 9 H ' E o o 0 E W Q K c q.                            ",
"                    A.] 7 A ) n 5 # b ~ N 5 q Z m 8 $ F W n . # / s.Q C                           ",
"                  g.o...a 9 N N b 5 O V n u p V 9 o 9 Q W o 9 B W M o Y P.                        ",
"                Q.Q B ( ] b O b F b 5 6 C H 8 6 6 O G W 5 t J E O O M v.T.8.                      ",
"              E.0.8 6 r 6 n b $ 0 n 5 : a n 0 9 O 5 N F * H W 6 6 Q W n N r ]                     ",
"            (.` 8 p a 6 O $ b 0 $ b A r 6 B B 9 o n E r V W n 6 E E @ p D u 6 `                   ",
"          E.[ 8 g =.a @ i q 5 V 9 6 b 9 6 N M 6 # N H q E W $ V F 5 V V w  .d 6 0.                ",
"        '.' b 9 X.d $ 5 0 6 $ u 0 # b n 0 b b 6 6 A u u B N 5 n 8 # i 9 $ w  .a 8 [               ",
"        u.6 u D 0 # w 9 5 5 . 9 H 0 6 b 9 9 9 6 5 6 $ b N 9 C N + 5 5 @ 0 6 6 Z i u r.            ",
"      j.0 9 S 0 5 5 9 : t f x e i i 5 5 5 5 6 5 5 # O 8 0 5 b i k x d a N ~ @ 0 S u b             ",
"      ,.g d i 5 5 9 6 w S g P r 5 5 5 # r p 6 6 $ 5 a i 5 9 b e d S K L M ' 5 8 9 Z , 1.          ",
"    L.3.d p 5 6 6 6 5 5 i 6 5 5 5 6 $ + g h 6 $ 5 T | M # V Z 6 8 n b b E E a Z 6 u p 4.{.        ",
"    $.z 9 u 5 6 9 5 5 p e 6 $ 5 5 $ u u a u w # u H m C _ H 9 b b b b N m Z A 0 9 9 V k J.        ",
"  B.S 4 0 5 6 9 6 6 e r 0 5 $ q q $ 5 a i C F 9 # 0 F ] ^ 0 C G 6 b Q E : V 0 n b 9 0 9 ~         ",
"  s.: 8 9 6 9 5 w 9 5 q 9 5 # q 5 = 1 e 4 S K 7 - h B G t & b G 8 9 ~ / w b V n b 0 9 C u B.      ",
"  L O 0 6 6 6 5 5 5 5 w : $ # ; u P o.O.S y i 9 5 t +.S.%.K F ~ B B Z _ b w C 9 9 8 6 V u 0.      ",
"/.w 6 9 5 3 w r r w 5 s : 5 ; i H F H H O.K 0 6 @ S %.r.' ~ ` u.! ^ S ) N 9 A i i 8 6 6 0 V       ",
"x.& 9 5 # 5 p u w 5 5 f < @ u G F 9 7 6 V ] N , r / ' M v b B t.z.E i } F 3 b 8 i 0 6 # n # m.    ",
"y.# i s w w w w q 5 5 s q # A J 9 @ w O 6 M m o 6 Q Q 5 # 6 5 ' n.! V { E o 9 a Z 5 5 ..G b v.    ",
"q.O 9 r S 5 5 u r ; 5 a e q C V $ # $ # 5 q w m m n n 9 $ : % F t.! b ^ N o P Y n b 9 L b b M.    ",
"q.: i F i $ w @ t : $ u r & i 9 # # # $ e $ t ,.f.E 9 $ : q o N 8.M w ^ 9 e o.u 8 n 9 N 0 G _.    ",
"7.5 H F 0 5 $ u Z w $ p w # 0 C : . X $ q 0 D %.b.h.B O @ . w e.x.E C ~ q , A n C n n b B 0.p.    ",
"6.# N 0 0 6 # C n w r 5 5 i 8 C o.;.l > @ n B G u.h.W * l :.G.a.8.6.E E , 0 b E n 6 n i J G Q     ",
"7.O 9 9 9 5 $ 5 e r 9 5 5 9 9 9 K <.-.e # n b . 7 ` / q >.I.S.W Q ' W n 6 n i 0 6 $ 9 Z V 6 x.    ",
"z.; 9 6 # $ 5 0 y y 5 6 6 6 6 9 8 v C i # C b O 5 ~ G E [ E R B B E B 8 9 a x b b 5 , i 9 B (.    ",
"l.0 n b p : : 8 e t 5 6 5 6 6 i V 5 @ 8 6 i D p D / W ! R 8 ` E G E b 9 5 s S n n # K E n W Q.    ",
"E.N b b d s 5 $ 0 d 5 5 5 5 i 9 9 9 5 0 9 w d p H / Q 6.W B E H / n 9 9 5 i b 6 0 K ) E n W       ",
"  W o 5 w a V V G b 5 5 9 r w 9 6 $ 5 0 9 w $ 6 n B Q 7.Q B B J b 0 n 0 5 6 H J G ~ b B 6 7.      ",
"  h.j a u # 0 C C 5 9 p p 0 6 5 6 5 5 b Z a a C B ~ Q q.Q A / b 8 N b b b u Z L B 6 6 E P (.      ",
"  Y.c x 8 5 5 6 $ $ b a i 9 0 9 6 5 w C H C B ` ` ` 6.t.w.J B 8 M N n b C Z w 8 9 5 n w ,.        ",
"    S.< 8 5 9 9 6 9 0 u 9 i 0 9 6 5 i A G N N B W ! 6.t.e.B N b N N B n Z V 8 b b 9 b t K.        ",
"    k.d w 6 9 u 6 9 6 9 9 8 0 6 6 u a F B B N n W 6.7.y.7.N M 9 n N F Z C 8 0 V n b u o.].        ",
"      u.r 9 6 9 9 9 9 i 0 8 u q 6 9 9 8 8 b N N E E E ! Q n N 9 n n A A B n 0 n b b r d.          ",
"        ) e 0 p w 9 9 V n 0 i 0 n b w 0 5 5 0 C F N B 7.7.E n N G n n N m n b 9 b a +.            ",
"        z.S s a 5 6 9 C G 9 6 C N b w V B N V J ( Q 6.7.' B b G B 8 n ~ N b 0 n C Y B.            ",
"          A.d 0 0 9 0 N b u w 0 8 9 6 V E ' [ ` q.9.6.E 9 5 b i 0 0 b N B b B H S d.              ",
"            q.i b b 0 9 u p 9 9 i 9 8 9 o J u.9.h.0.o $ 8 V A n 0 0 N n b B ^ a u.                ",
"              0.Z 8 0 V u 0 n 0 b 0 0 i p $ n B n 9 9 b C a C n b 0 0 n b C a q.                  ",
"                7.C i Z 6 9 0 5 b b 0 u : N E 9 0 B b p H n n 9 0 n n 8 a D t.                    ",
"                  Z.} u 8 8 i 0 0 N b b 5 N W n N E n Z b n n N N N b * / ).                      ",
"                      p.X.2 q 9 i 0 i 9 O n G 0 m / a 6 0 0 F n 6 2 x {                           ",
"                          2.S 5 q 0 i Z 9 b B 8 V N 0 C Z b 9 @ q >.U.                            ",
"                              C._ A 9 5 O b B b b N 0 @ 0 A _ i.                                  ",
"                                    (.z.6.h.y.^ 7.h.7.y.(.                                        ",
"                                                                                                  ",
"                                                                                                  "
};
