/* XPM */
static char *_846725f791c4ddcaa39fe9bd7c4eb1abN3O35nFIMnFQmx8[] = {
/* columns rows colors chars-per-pixel */
"48 48 227 2 ",
"   c None",
".  c #060606",
"X  c #080506",
"o  c #070807",
"O  c #00010B",
"+  c #070809",
"@  c #090B0A",
"#  c #080708",
"$  c #0B100F",
"%  c #060917",
"&  c #0D1413",
"*  c #0F1917",
"=  c #0E1C19",
"-  c #08111D",
";  c #101917",
":  c #111B19",
">  c #11141C",
",  c #0F211D",
"<  c #11231F",
"1  c #033503",
"2  c #01022A",
"3  c #010725",
"4  c #040131",
"5  c #130B2E",
"6  c #112621",
"7  c #112924",
"8  c #172929",
"9  c #18322B",
"0  c #123A2E",
"q  c #212A32",
"w  c #2C3538",
"e  c #293437",
"r  c #23342A",
"t  c #004900",
"y  c #1E5700",
"u  c #1A4609",
"i  c #285014",
"p  c #007300",
"a  c #0E6F03",
"s  c #2E6807",
"d  c #376C03",
"f  c #3A7500",
"g  c #286E13",
"h  c #2A4828",
"j  c #324E2C",
"k  c #365825",
"l  c #3D5534",
"z  c #364D34",
"x  c #3D6327",
"c  c #405E00",
"v  c #4A7B04",
"b  c #487717",
"n  c #425E30",
"m  c #4C7725",
"M  c #476633",
"N  c #50682F",
"B  c #394644",
"V  c #5B5C5C",
"C  c #565658",
"Z  c #4A524D",
"A  c #625E59",
"S  c #5B665B",
"D  c #536F4A",
"F  c #62655B",
"G  c #647957",
"H  c #5E6262",
"J  c #636464",
"K  c #6D6E6E",
"L  c #696965",
"P  c #766E65",
"I  c #766F68",
"U  c #797167",
"Y  c #7C746B",
"T  c #74716B",
"R  c #727474",
"E  c #7B7C7B",
"W  c #787976",
"Q  c #6F6E73",
"!  c #847C73",
"~  c #847E78",
"^  c #80796F",
"/  c #1F8200",
"(  c #398600",
")  c #4A8500",
"_  c #558804",
"`  c #5D9B01",
"'  c #589201",
"]  c #4D930C",
"[  c #679A03",
"{  c #77991B",
"}  c #64A500",
"|  c #77AE18",
" . c #54902F",
".. c #6D922F",
"X. c #74A533",
"o. c #5E8645",
"O. c #75975C",
"+. c #6C8D53",
"@. c #79A555",
"#. c #799667",
"$. c #7E827C",
"%. c #7B8476",
"&. c #758B6A",
"*. c #88B700",
"=. c #8AB10B",
"-. c #8EBC21",
";. c #92C408",
":. c #A5D00F",
">. c #A5CC36",
",. c #849B5B",
"<. c #94B956",
"1. c #8DAB54",
"2. c #88857B",
"3. c #86937C",
"4. c #889679",
"5. c #858865",
"6. c #85A868",
"7. c #95A978",
"8. c #96B579",
"9. c #94B36D",
"0. c #A1B678",
"q. c #ABD04E",
"w. c #A6C571",
"e. c #B9D777",
"r. c #B6D869",
"t. c #7E7B83",
"y. c #807D83",
"u. c #7B8084",
"i. c #848483",
"p. c #8B8B84",
"a. c #8B8A8C",
"s. c #8D8780",
"d. c #928C86",
"f. c #94918E",
"g. c #98978B",
"h. c #949493",
"j. c #9A9793",
"k. c #9B9A95",
"l. c #9C9D9C",
"z. c #989B97",
"x. c #8E918C",
"c. c #A2978B",
"v. c #A19E9B",
"b. c #A29C96",
"n. c #98A888",
"m. c #9BB786",
"M. c #9DA498",
"N. c #8FA580",
"B. c #A4B788",
"V. c #A3A29D",
"C. c #A5A799",
"Z. c #B5A899",
"A. c #A5B595",
"S. c #A1AA8C",
"D. c #A5A5A3",
"F. c #AAABA5",
"G. c #ADACAB",
"H. c #A7A7A7",
"J. c #B1AEAC",
"K. c #B0ACA6",
"L. c #AEB5A7",
"P. c #B2B2AE",
"I. c #B6BAA8",
"U. c #B5B4B3",
"Y. c #B8B7B6",
"T. c #BABAB6",
"R. c #BCBBBA",
"E. c #B8B6B8",
"W. c #AFAEB3",
"Q. c #9B96A0",
"!. c #C8B8A6",
"~. c #C0BFBD",
"^. c #A9C393",
"/. c #B7C996",
"(. c #B8D088",
"). c #B7C6A8",
"_. c #BEC4B6",
"`. c #C4D999",
"'. c #C0D98B",
"]. c #C9D9A9",
"[. c #C1C1BD",
"{. c #C4C9BB",
"}. c #CAD4BC",
"|. c #C9D7B6",
" X c #D0DEB9",
".X c #D5E4B4",
"XX c #D7E4BD",
"oX c #D3E5AD",
"OX c #BEB7C3",
"+X c #C3BDC3",
"@X c #C5C4C2",
"#X c #C8C6C5",
"$X c #C9CBC5",
"%X c #CDCBCB",
"&X c #C8C4C9",
"*X c #D1CFCE",
"=X c #CDD4C4",
"-X c #D2D3CD",
";X c #D4DCC9",
":X c #D5D3D2",
">X c #D8D6D5",
",X c #DADAD5",
"<X c #DDDCD9",
"1X c #DAD7D9",
"2X c #CFCAD0",
"3X c #E1DEDD",
"4X c #DDE9C4",
"5X c #D8E2C7",
"6X c #DDE0D6",
"7X c #E3E1DE",
"8X c #E9ECDB",
"9X c #E3E9D8",
"0X c #E5EDD2",
"qX c #E4DEE2",
"wX c #E5E3E1",
"eX c #E9E7E4",
"rX c #EAEAE5",
"tX c #EEEBEB",
"yX c #F0EEEC",
"uX c #EEF0E4",
"iX c #F3F2ED",
"pX c #F4F6E9",
"aX c #F7F4F2",
"sX c #F9F6F4",
"dX c #FBF9F6",
"fX c #FEFDFB",
"gX c #F2EEF0",
/* pixels */
"o o . # . # . + 2 k b { ..d x.t N.,.v Z U.W.E.h.h.Y.W.W.E Y.D.{ i.D.&XG %._.b b r @ . . o +     ",
"o o . . . + . # 9 k o N i i H R y 1 a.R i.i.a.R R a.i.i.H a.h.l.Q S . %.a.H W . . . o o X o     ",
"o X o . X o + 2 h ' L >.<.` _.&X X[ uXU.gXfXfX%X%XfXfXaXP.sX7XaX[.>X^.8X7X@X,X. e o o o o +     ",
"o o o X o X X 3 D ( I..X=X}._.U.<XiX*XJ._.dXrXP.U.eXdX_.T.O.` =XU.E.sXfX$.W.:X. e . o o o +     ",
"@ . o . o . & . i.=XR.2X6X1X%XyXU.sXH.fXU.rX@X7X7X[.tXP.fX4.)._.yX%X:X7X) {.-Xo : & . . . .     ",
". o . . . o @ . E eXR.sXH.P.yXdX#XH.>XfX7XG.R.aXaXR.G.7XfX_.G.$XdXyXU.P.q.XX*Xt N : * * & &     ",
". . . . o o $ . E wXI.fX:X*.e.aXrXG.aXiXdXU.<XsXsX<XP.fX].:.n.tX8XdX%X%XwX_.5X( M 2 @ o @ +     ",
". + . . X o @ . $.wXU.^.+.*.4XdXtXP.dXyXfXR.7XdXsX7XT.fX(.8XE.gX.X'.:X-XtXOX5Xt q o o o . .     ",
"# # . + X . $ . W rX%.).h.L.aXsX:Xl.wXdXyXD.#XaXsX$XD.tXfXeXl.<XXX;.m.R.>XI.%X. e : ; + $ @     ",
". + . # o X . . E <X_.7X*X&X,XsXP.<XY.fX[.>XR.rXrXT.>X[.fXU.<XU.uX<.[.:XI.X.&.% & & & & & *     ",
"o o + # o o & . i.tXR.R.yXrXE.*X>XfXT.-XU.fX<X+X@X<XdXU.:XE.fX%X2X&Xw.8XH.O.m.. . . o . . @     ",
"o # + . X o o O H G.E >XaXdX*X%._.6XtXV.3XaXsXT.R.aXdX3XM.rXsXsXE.+.<.e.&Xt.H.O : $ . $ @ &     ",
"o o . + # . o + Z t.V wXrX@._.O.} 7XaXD.eXaXdX@X@XdXsXeXH.tXr.e.n.8.pX8.6.x V o * * & * @ ,     ",
"o o # . # + . . W ,XU.Y.dX=XG m.,XfX$XR.+XdXwXY.E.eXdX_.T.2XpX=.A.T.aXaXm.[ n.O < 6 : : & @     ",
"o . . # o o o % j p %X:X>X<Xo.).@XuXU.pX7.tX_.wXwXR.eXY.fXG.rXM.sX#X%X>XG.G.j.J y.J F L V &     ",
"X . # . o o o 2 l ] 7.4XU.F.@.X.I.M.{.r.|.W.R.sXsXR.H.wXfX<XL.m.:XR.M.G.E.D.v.C K C Z w o &     ",
". # # + o o . s m./.-.4X&X:XXX=X).N.).<.rXR.<XdXaX<XY.dXiXaXY.).x.2.4.L.U.Q.W.x.K e = = * <     ",
"o + . . o o Z &.4.P.p.F.K.#X4X8XaXW.fX>X}.&X7XsXdX7XT.fXiXdXG.*Xz.p.n.+.%.z.z.$.D 4 , = < <     ",
". + . # o S t.Q G 0.D @.v.J.9XXX:XM.wX^.}.G.[.dXsX@XD.tXsX<Xz.j.x.M.W.M.F.H.L.o.l 2 7 7 7 7     ",
"X + . . . J a.H K (./.V.D.G.P. X+XrX#.;X#X<XR.eXeXR.<XT.<Xv.W.D.M.%X&X_._.&X;Xt = = = = = <     ",
"o o o o X Q f.W i.>XC.p.b.A.2.n.#.;XT.:XU.dX<X~.~.3XfXH.h.a.W.l.D.Y.A.m.z.@X:X. w o . + + +     ",
"o o o o X W W J R j.2.2.A.5XC.3.6.uXyXV.7XaXdXR.R.dXaX%Xp.J.B.I.f.R.|.oXB.W h.. = = * * & :     ",
". # X + $ q % e q -.,.3.*X*Xv.f.:XwXrXD.rXaXdX@X[.dXpX7Xa.b.M.0.f.G.4X;.9.E %.s h 7 7 , 7 9     ",
"+ # . @ & & $ 4 M :.7.k.T.U.i.s.V.F.C.U.R.dXwXT.T.wXfXU.k.h.M.k.k.D.;X..y &X9X/ e - = , 8 8     ",
"# . . X X 3 h ] ] [ I.C.C.D.j.#.v.f.c.[.J.3XY.3X<XY.-Xb.G.v.R.D.U.&X@X_.OX_.|.1 @ * # # . X     ",
"# + # . X & 4 j ` =X<.,.d.v.Y.>Xn.W d.b.Z.b.K.:XT.k.j.b.G.[.z.k.$X].C./.|.1.*.2 * 7 9 9 : &     ",
"o o o o o @ ; O V ).` 7.S.C.J.K.3.v.J.F.b.c.j.j.j.h.D.J.b.D.f.f.I.=.v B.>.b { k & 7 7 9 7 @     ",
"o o o o o X o 2 M ( H.w.-.}.'.7.I.U.tX3X3XD.d.T T a.D.J.~ ! U Y b.B.g 3X].v X.` k 2 6 7 = X     ",
"o X o o o + X 2 N *.R.pXl.+X]..X1Xk.3XdXrXV.v.d.f.v.f.f.U U P P U 5.4.Y.qX=.| 0 k 2 = = + &     ",
"o . . o @ @ . . R |.,.'.;X$X-X'.U.tXJ.fXY.3XJ.K.c.d.s.^ U U U P P U ~ U.W.!.).. 8 : * & $ +     ",
"o & $ * ; * : . y.1X} r.uXiXT.A.) aX&X@X~.dX3Xv.c.c.! ^ ^ U ^ P P P Y 2.y.T.<XO w 0 9 7 6 6     ",
"o $ $ & ; * * O C .._ 8XXX4X-XY.m.A.aXV.wXsXdXD.y.Z.c.! ^ ^ U ^ Y Y U P ! E i.. 5 7 , 6 7 6     ",
"o o . X @ * * O C D.o./.} 6X:XL.dXiXtXD.wXaXdXU.E 2.Z.c.~ ! ^ ^ ^ ^ P P P I W s M , 7 < = :     ",
"X o o o O & * . K ).' p _.gXR.[.:XfX[.#XT.dX3XT.D.2.c.!.c.2.^ ^ ^ ^ ^ P F C I./ M - : ; * *     ",
"+ + # + @ @ . % z *.q.).A.O.*XdXW.eXP.fXT.wXR.eX7Xv.~ b.!.c.~ ~ ! Y P C C f.[.. - + + + @ $     ",
"* & * * * * = . t.8X>.sXU.z.8.6X1Xl.6XdXrXH.@XaXsXR.s.! Z.!.c.2.T I ^ ~ U.C.M.. 8 < ; ; * <     ",
"o o . X $ * ; . E tX) 5X%X:XuXm.tXP.dXyXfXT.7XaXsX3XJ.T.! I.Z.T C F %.D.-Xb p 5 ; ; ; * = :     ",
"o o o o O @ 8 . E rXs X.U.>XdX8.7XW.dXyXdXT.<XdXsX3X~.3X4.U Y A 2.I.=.R.' g.M.. : $ $ $ $ &     ",
"o o X @ * - j ] 8.7XL.iXG.G.6.;X:XV.<XdXeXG.+XaXaX[.D.wX6.M J M m.8XN.T.-X&X>X. w & & & + @     ",
"X o X o @ ; 5 t 7.3X@X:X>X$X_.fXP.tXG.fXY.wX_.wXwX~.yX7.:.G sXQ.eX>X:X1XT.n._.. q : ; : & *     ",
"o o o X O o * . t.3XU.U.iXyXR.R.>XfX@X~.T.fX7XY.T.9X4XS.[ %XfX6XR.Y.wXaXl.d #.% * * * : @ &     ",
"X X o o X X @ . u.iXK wXfXfX>XU.fXdXsXH.gX5XsX@X#XdXr.wXM..X<.).U.3X8X^.qXd ) 2 X o . o # +     ",
"o o o X o o O . H W.8 U.U.E.H.h.R.U.L.%.U.c T.H.v.P.n.Y.a.6.[ N p.G.D.m W.M x 3 o o o o X #     ",
". X o o o o . . R :XU.rXwXwXwXrXqXwX].q.w. .@.=XrXwXtX7XwXyX$X) [ *.` _ a b b 2 o o o o + +     ",
"o X . o X o o o B K C R R R Q #.9.W t.S d j u j W Q R R K R l i j M n h z h h o o X o o X +     ",
"o o o o o o X o X . O . . . O f f . . O 4 3 o 3 . . . . . O 2 % - 2 2 3 % X O . o + . X o +     ",
". . X . o X o o O . o X o o o j # . . # X # o o X o . . @ . . @ + . X . . + o . . + o o o +     ",
"o . . . o o o o o X o X o o o % . # . . # . o . . o o . . . . . X # . # # + . o o X X o X +     "
};
