/* XPM */
static char *_900e5fe8a734469b8926a60cb3b3077SZOAGjFZkvn1cdoz[] = {
/* columns rows colors chars-per-pixel */
"48 48 227 2 ",
"   c None",
".  c #060606",
"X  c #080506",
"o  c #070807",
"O  c #00010B",
"+  c #070809",
"@  c #090B0B",
"#  c #080708",
"$  c #0B100F",
"%  c #001A0E",
"&  c #060917",
"*  c #0D1413",
"=  c #0F1917",
"-  c #0E1C19",
";  c #08111D",
":  c #101917",
">  c #111B19",
",  c #11151B",
"<  c #003A00",
"1  c #0F221E",
"2  c #11231F",
"3  c #002A00",
"4  c #000022",
"5  c #00012A",
"6  c #020A27",
"7  c #040131",
"8  c #130B2E",
"9  c #112621",
"0  c #112924",
"q  c #172929",
"w  c #18322B",
"e  c #113329",
"r  c #22382A",
"t  c #222A32",
"y  c #293337",
"u  c #2B3538",
"i  c #004A00",
"p  c #1E5700",
"a  c #1A4609",
"s  c #285014",
"d  c #007600",
"f  c #1B7800",
"g  c #006200",
"h  c #2C6800",
"j  c #376D00",
"k  c #397700",
"l  c #2C6B10",
"z  c #2A4828",
"x  c #324E2C",
"c  c #365825",
"v  c #3C5534",
"b  c #364D34",
"n  c #3D6325",
"m  c #405E00",
"M  c #4A7C06",
"N  c #487717",
"B  c #425E30",
"V  c #4C7725",
"C  c #476633",
"Z  c #506A2F",
"A  c #617838",
"S  c #394644",
"D  c #57595C",
"F  c #49514E",
"G  c #5B665B",
"H  c #576F4C",
"J  c #637857",
"K  c #5E6262",
"L  c #696D6A",
"P  c #6E6E72",
"I  c #737574",
"U  c #7B7C7C",
"Y  c #767978",
"T  c #706F75",
"R  c #158300",
"E  c #388800",
"W  c #4B8200",
"Q  c #468900",
"!  c #558804",
"~  c #599302",
"^  c #5D9B00",
"/  c #579300",
"(  c #4B9408",
")  c #639C00",
"_  c #6D9905",
"`  c #77991B",
"'  c #64A500",
"]  c #78AA09",
"[  c #5F9928",
"{  c #659238",
"}  c #70962E",
"|  c #72A634",
" . c #5E8645",
".. c #76985B",
"X. c #6B8F50",
"o. c #78A452",
"O. c #7A9668",
"+. c #7E847A",
"@. c #7E9073",
"#. c #85AB00",
"$. c #88B500",
"%. c #93BD01",
"&. c #84AC13",
"*. c #8AC200",
"=. c #93C300",
"-. c #98C619",
";. c #A2CD00",
":. c #ABD710",
">. c #A6CE32",
",. c #87A75D",
"<. c #92B651",
"1. c #889A78",
"2. c #87A669",
"3. c #9BBE68",
"4. c #94A979",
"5. c #94B579",
"6. c #90AC70",
"7. c #A2B976",
"8. c #B3D759",
"9. c #A5CA45",
"0. c #A7C969",
"q. c #A6C671",
"w. c #B2CD7C",
"e. c #B8D775",
"r. c #B7D86C",
"t. c #7E7B83",
"y. c #817C88",
"u. c #848585",
"i. c #8A8A8C",
"p. c #888C83",
"a. c #8B9585",
"s. c #919B8B",
"d. c #9D9E9C",
"f. c #969894",
"g. c #908D93",
"h. c #98A888",
"j. c #9BB886",
"k. c #9DA496",
"l. c #8FA580",
"z. c #A4BA85",
"x. c #A1A29E",
"c. c #A4AB9B",
"v. c #A5B896",
"b. c #A1AB8E",
"n. c #9B96A0",
"m. c #A5A5A4",
"M. c #A9ABA6",
"N. c #ADACAB",
"B. c #A7A7A7",
"V. c #B0AFAF",
"C. c #AFB0AB",
"Z. c #ADB4A6",
"A. c #B1B2AE",
"S. c #B5BAAC",
"D. c #B1ADB2",
"F. c #B5B4B3",
"G. c #B8B7B6",
"H. c #B9BAB6",
"J. c #B9B5BA",
"K. c #BCBCBA",
"L. c #B7B8B4",
"P. c #C0BFBD",
"I. c #BBD682",
"U. c #ABC392",
"Y. c #B6CA9A",
"T. c #BDD399",
"R. c #B3C88B",
"E. c #BBCAAC",
"W. c #B6C6A6",
"Q. c #BEC6B5",
"!. c #C7DD9A",
"~. c #C0D98B",
"^. c #CADAA7",
"/. c #C1C1BE",
"(. c #C5CBBB",
"). c #CAD4BC",
"_. c #C8D7B5",
"`. c #D0DFBC",
"'. c #D5E4B4",
"]. c #D7E4BD",
"[. c #D0E3A8",
"{. c #C9E292",
"}. c #BEB7C3",
"|. c #C2BDC2",
" X c #C6BEC9",
".X c #C5C3C2",
"XX c #C8C6C5",
"oX c #C9CAC5",
"OX c #C9C4C9",
"+X c #CDCBCB",
"@X c #C7C9C2",
"#X c #D1CECD",
"$X c #CDD5C4",
"%X c #D2D3CC",
"&X c #D6DCCC",
"*X c #D4DCC7",
"=X c #D1CDD0",
"-X c #D5D3D2",
";X c #D8D6D5",
":X c #DADBD5",
">X c #DEDCDA",
",X c #DAD7DA",
"<X c #CFCAD0",
"1X c #E1DEDD",
"2X c #DDE9C3",
"3X c #D9E3C9",
"4X c #DDE1D5",
"5X c #E2EDCA",
"6X c #E3E1DE",
"7X c #E9EDDC",
"8X c #E4EBD6",
"9X c #EBF0DC",
"0X c #E4DEE2",
"qX c #E5E4E1",
"wX c #E9E6E4",
"eX c #EAEAE5",
"rX c #EEECEA",
"tX c #E6E9E1",
"yX c #F0EEEC",
"uX c #EEF0E4",
"iX c #F3F1ED",
"pX c #F4F6E9",
"aX c #F2EEF0",
"sX c #F7F4F2",
"dX c #F9F6F4",
"fX c #FBF9F6",
"gX c #FEFDFB",
/* pixels */
"o o . + + X o o 5 c N } } j s.i a.2.M F F.A.G.f.f.F.F.N.U G.c.` u.m.XXH 1.K.l M z & X X o #     ",
"o o . . + + o o r c O V s s G Y p 3 i.P u.u.i.I I i.u.u.K i.g.n.P G . U i.G U . X X X + o #     ",
"o X o . o o X 5 c / L >.<.) /..X)._ uXS.iXgXgX+X+XgXgXsXC.fX7XsX.X-XU.7X0X.X;X. u + + X o #     ",
"o o o X o # X 4 F E S.'.$X).P.V.1XpX#XA./.fXwXF.F.qXfXK.K...^ oXG.J.dXgX+.F.-X. u o # X o #     ",
"+ . + . o o $ . u.$XK.#X>X:X#XyXA.dXM.gXA.rX/.6X1X.XrXA.gX1.E.K.eX+X%XqXW (.+X. , * . . . .     ",
". + . . o o @ . U wXK.iXB.V.yXfXXXM.;XgX6XM.K.sXdXK.M.0XgX(.B.@XgXyXL.C.9.'.<Xi Z > * = * =     ",
"# + . . o o $ . y.6XL.gX-X$.e.aXwXN.dXiXfXF.>XdXdX>XF.gX[.=.h.rX7XsX+X+XtXK.&X( C 5 @ @ @ #     ",
"# . . . X o @ . +.6XL.z.X.%.5XdXyXA.fXyXgXK.6XfXdX6XK.gXI.7XJ.sX'.!.-X=XrX|.&Xg t o o . . .     ",
"+ + o o X o $ . Y eX@.W.s.M.fXfX-Xd.6XgXyXm..XdXdX.Xm.yXgXwXd.,X].*.b.K.:XS.<XO y > : # @ *     ",
". # o o o o . . U >XQ.6X#XOX:XdXA.1XF.gXP.;XK.rXrXK.;XP.gXF.1XF.9X<./.;XS.| X.& * * * * = *     ",
". . o o o o * . u.rXK.J.yXeXJ.<X-XgXH.%XL.gX>X/./.>XfXS.-XK.gX+XOX+Xq.9XB...h.. . . o . . #     ",
"+ X o o o o o O K N.U ;XsXdX#X1.E.4XrXd.1XsXdXG.K.dXdX1Xd.wXsXsXJ.X.3.e..Xt.N.. > $ . $ @ *     ",
"+ X o o o o o O F t.D wXeXo.H...) 6XsXm.wXsXfX.X.XfXsXwXB.eXe.e.l.5.iX5.2.n D o * : * = @ 1     ",
". . o + o o X . Y :XV.J.fX*XJ j.>XgX@XK.|.fXwXJ.G.tXgXK.K.+XpX&.v.K.sXsXh.) l.. 9 9 > > * +     ",
"+ . + # o o X & x d  X-X;X,X .W.}.yXJ.pX4.rXP.6X1XP.eXG.gXC.eXb.fX+X-X4XF.S.@X. y 1 1 1 9 *     ",
"+ X X . X o . 5 B ( 4.5XF.M.o.| S.m.(.8.^.D.K.dXdXP.B.tXgX>XZ.j.sXdXC.K.>XXX+X. y @ @ @ + *     ",
". . . . + . . h h.!.=.5X+X%X].$XY.l.E.3.eXK.>XfXdX>XH.fXiXsXG.Q.j.[.=.W.&X.X%X. y - , - = 2     ",
"+ . . X o & x Q 4.eX1.&X#X#X5XuXdXD.gX&X).OX4XfXfX6XH.gXiXfXC.sXeX0.I.R O.OX=Xi n 5 1 - 2 2     ",
". + o o o o . 4 Z w.f o.N.J.7X].-Xk.4XU.$XN.|.fXdX.Xm.rXfXqXd.-XE.E.OXa.U..X3XE v 6 0 9 0 0     ",
"+ . o o o o . . I ~.!.XX).=X).]. XtXO.*XXX,XK.wXeXK.,XK.gXA.wXM.W.,XoX(..XOX&X< - - - - - 2     ",
". . # + X # , . u.iX@XW.>.w.2.z.O.*XH.-XF.gX>XQ./.>XgXG.+X.XgXZ.#XP.v.j.d..X-X. u . + # # #     ",
"# + o o X X o . D Z.h.M Y.8X(.O.o.yXaXk.6XsXdXK.K.dXsX6Xm.eXT._.J.+X_.'.7.I f.. > - - * * >     ",
"o o o # * @ @ : % #.%...tXgX;XM.gXdXyXB.tXsXfX.X.XfXdXtXm.iX!.8.C.-X8X=.3.t.+.h z 0 9 2 0 w     ",
"o o o $ * * * 5 C :.r.J.fXyXA.k.-XgX.X/.K.gXqXL.H.6XfXK./..XgX(.H.K.6X[ p  X9Xf y - ; 9 q q     ",
"X . X X X 6 z N ~ _ Q.I.w.@XQ.} F.yXN.fXF.wXP.6XtXP.qXG.gXN.rXF.sX,XXX(.J./._.< @ , X + . X     ",
". . + . X * 6 c ^ $X<.=.f.J.eXeXv.c.1XgXeXm./.dXfXP.m.qXgX>Xx.+XgX!.c.Y._.,.#.5 = 0 w w > *     ",
"+ X o o # @ > . G W.) j.T.&XgX&Xd c.fXiXgXG.1XdXdX>XK.gXiXdXN.aX].$.M z.>.N ` n * 0 0 w 0 @     ",
"+ + o o + . . 5 B E m.q.%.3X!.0.Q.G.dXrXgXK.6XdXdX1XH.gXyXfXV.rXdXY.d ,X!.M | ~ c 5 9 0 - X     ",
". . o . o o o 5 Z $.K.yXd.|.^.'.,Xd.1XgXrXx./.dXdX/.m.rXgX6Xd.;X5X;.1.J.1X&.] e c 5 1 - + *     ",
"X . . o @ $ . . I ^.,.~.*XoX%X~.H.rXN.gXK.1XP.wXwXK.1XH.gXN.wXJ.5XU.#X1XF./.E.. q : - $ * #     ",
"# $ $ = : = , . y.-X) r.uXaXK.v.W pX.X.XH.gX6XK.K.6XgXG.XXP.gX%XXX|.6XpXi.|.qX. u r e 9 9 2     ",
"# * $ = : = = O D { ! 7X].5X%XL.j.v.dXx.6XdXdXP./.fXdX6Xm.rXsXfXJ.k 3X!.W.U u.. 7 0 1 9 0 9     ",
"o . . # @ * - O F M. .Y.' 4X-XV.fXiXrXm.6XsXfX/.K.fXdX6XB.:X^ tXc.{ rX0.7.y.a.j n 1 0 9 - >     ",
"o o X . o * - . I W.~ d E.aXJ.Q.-XgX.XXXG.gX1XK.K.6XgXH.XX.X_.c.] S.*X( A |.8Xf v ; > > = -     ",
"o @ # @ + + . & S $.9.E.v...=XdXN.eXN.gXH.6XK.wXwXK.6XH.gXA.aXM.'.1X+Xh.A.+X+X. , @ + # @ @     ",
"= * = = , - - . t.9X>.fXD.k.6.tX;Xd.6XgXeXm..XdXdXP.m.rXfX1Xd.#XsXj.a..XqXS.k.. w 2 - * = 2     ",
". . o . $ = : . Y rXQ *X<X-XuXj.yXA.fXyXfXH.6XdXdX6XF.gX2X^.J.dX$X,.,.Q.%XN d 8 : : > : - >     ",
"o o # # . @ w . U eXj | L.-XfX5.6XD.dXiXfXH.>XdXdX1XK.yX_.r.J.$X(.2X$.K.~ s.k.. > $ $ $ * *     ",
"o o . @ * ; x Q 5.qXF.iXN.N.6.&X%Xx.1XgXrXm./.dXdX/.m.wX5.' J.k v.9Xl.J.%XXX;X. u * $ * @ @     ",
"o o . # @ > 8 i 4.1X.X-X-X.XQ.fXA.rXN.gXH.6XP.wX6XP.rX4.-.J dXx.uX-X;X:XK.h.Q.. t > > > * *     ",
"o o + + X . * . t.1XF.L.yXyXK.J.-XgX/.P.K.gX6XL.L.6X5Xb.) +XgX>X/.F.tXsXn.j O.& = : , = $ *     ",
"o X + . . X $ . t.iXP 1XgXgX;XL.gXgXfXB.rX3XsXXXoXfX8.eXk.].<.W.V.1X8XU.0Xk W 5 o o . . o #     ",
"o o . + . . o . G V.q F.F.J.B.f.K.F.F.+.F.j L.N.d.S.h.J.i.2._ Z p.N.m.V F.C n 5 o o o X o #     ",
"o o + . . . o . Y -XF.rXqXqXtXtX1XqX_.>.q.{ X.).wXqXwX6XwXyXoXQ ) =.~ ~ f n N 5 o o o o o #     ",
"X . + + + . + + S L D I I I P @.6.+.t.G j x a x Y P I I P I v s z C B z b r z o X o o o o #     ",
". . X + . + . # X . O . . . . k k . . O 7 5 o 6 . . . . . . 4 & & 5 5 7 & . o o . o o o o X     ",
". . o o . . . X X o o X o o . z o o # . X X X . . X . . o o + + o o # + X . o X . . o o o #     ",
". X o o . . . o o X o o o o o & o o + X + . o o o o o . o o X + o o o + o o o + + + o o o #     "
};
