/* XPM */
static char *_27960590f894d0ebf8e300aff6f2cf2P8SmFJGHYwVmiEsx[] = {
/* columns rows colors chars-per-pixel */
"48 48 216 2 ",
"   c #000000",
".  c #00010B",
"X  c #000018",
"o  c #001515",
"O  c #002A00",
"+  c #003A00",
"@  c #000022",
"#  c #000820",
"$  c #00012A",
"%  c #020B2A",
"&  c #041325",
"*  c #04122A",
"=  c #0D1A28",
"-  c #040131",
";  c #120634",
":  c #191635",
">  c #0F2726",
",  c #0F2229",
"<  c #12252A",
"1  c #18272D",
"2  c #142A2B",
"3  c #1C2B2E",
"4  c #083C29",
"5  c #18362C",
"6  c #1A2330",
"7  c #1E2B30",
"8  c #212C32",
"9  c #243232",
"0  c #293337",
"q  c #2B3538",
"w  c #004A00",
"e  c #1A4609",
"r  c #1E5700",
"t  c #285014",
"y  c #006200",
"u  c #007600",
"i  c #1B7800",
"p  c #2C6800",
"a  c #376D00",
"s  c #397700",
"d  c #19402F",
"f  c #2A4828",
"g  c #324E2C",
"h  c #365825",
"j  c #364D34",
"k  c #3C5534",
"l  c #3D6325",
"z  c #4A7C06",
"x  c #487717",
"c  c #425E30",
"v  c #506A2F",
"b  c #4C7725",
"n  c #476633",
"m  c #617838",
"M  c #394644",
"N  c #49514E",
"B  c #57595C",
"V  c #5B665B",
"C  c #637857",
"Z  c #5E6262",
"A  c #696D6A",
"S  c #6E6E72",
"D  c #706F75",
"F  c #737574",
"G  c #767978",
"H  c #7B7C7C",
"J  c #158300",
"K  c #388800",
"L  c #4B8200",
"P  c #468900",
"I  c #558804",
"U  c #459700",
"Y  c #579300",
"T  c #599302",
"R  c #5D9B00",
"E  c #588E17",
"W  c #639C00",
"Q  c #6D9905",
"!  c #77991B",
"~  c #64A500",
"^  c #78AA09",
"/  c #5F9928",
"(  c #70962E",
")  c #659238",
"_  c #72A634",
"`  c #5E8645",
"'  c #6B8F50",
"]  c #76985B",
"[  c #78A452",
"{  c #7A9668",
"}  c #7E847A",
"|  c #85AB00",
" . c #88B500",
".. c #93BD01",
"X. c #84AC13",
"o. c #8AC200",
"O. c #93C300",
"+. c #98C619",
"@. c #A2CD00",
"#. c #ABD710",
"$. c #A6CE32",
"%. c #87A75D",
"&. c #92B651",
"*. c #889A78",
"=. c #87A669",
"-. c #9BBE68",
";. c #90AC70",
":. c #94A979",
">. c #94B579",
",. c #A2B976",
"<. c #A5CA45",
"1. c #B3D759",
"2. c #A7C969",
"3. c #B7D86C",
"4. c #A6C671",
"5. c #B2CD7C",
"6. c #B8D775",
"7. c #7E7B83",
"8. c #817C88",
"9. c #848585",
"0. c #888C83",
"q. c #8A8A8C",
"w. c #8B9585",
"e. c #919B8B",
"r. c #908D93",
"t. c #969894",
"y. c #9D9E9C",
"u. c #8FA580",
"i. c #98A888",
"p. c #9BB886",
"a. c #9DA496",
"s. c #A1AB8E",
"d. c #A4BA85",
"f. c #A1A29E",
"g. c #A4AB9B",
"h. c #A5B896",
"j. c #A5A5A4",
"k. c #A7A7A7",
"l. c #A9ABA6",
"z. c #ADACAB",
"x. c #B0AFAF",
"c. c #ADB4A6",
"v. c #AFB0AB",
"b. c #B1B2AE",
"n. c #B5BAAC",
"m. c #B1ADB2",
"M. c #B5B4B3",
"N. c #B8B7B6",
"B. c #B7B8B4",
"V. c #B9BAB6",
"C. c #B9B5BA",
"Z. c #BCBCBA",
"A. c #C0BFBD",
"S. c #B3C88B",
"D. c #BBD682",
"F. c #ABC392",
"G. c #B6CA9A",
"H. c #BDD399",
"J. c #B6C6A6",
"K. c #BBCAAC",
"L. c #BEC6B5",
"P. c #C0D98B",
"I. c #C7DD9A",
"U. c #CADAA7",
"Y. c #C1C1BE",
"T. c #C5CBBB",
"R. c #C8D7B5",
"E. c #CAD4BC",
"W. c #D0DFBC",
"Q. c #D0E3A8",
"!. c #D5E4B4",
"~. c #D7E4BD",
"^. c #BEB7C3",
"/. c #C2BDC2",
"(. c #C5C3C2",
"). c #C8C6C5",
"_. c #C7C9C2",
"`. c #C9CAC5",
"'. c #C9C4C9",
"]. c #CDCBCB",
"[. c #D1CECD",
"{. c #CDD5C4",
"}. c #D4DCC7",
"|. c #D2D3CC",
" X c #D6DCCC",
".X c #CFCAD0",
"XX c #D1CDD0",
"oX c #D5D3D2",
"OX c #D8D6D5",
"+X c #DADBD5",
"@X c #DAD7DA",
"#X c #DEDCDA",
"$X c #E1DEDD",
"%X c #DDE9C3",
"&X c #D9E3C9",
"*X c #DDE1D5",
"=X c #E2EDCA",
"-X c #E4EBD6",
";X c #E3E1DE",
":X c #E9EDDC",
">X c #EBF0DC",
",X c #E4DEE2",
"<X c #E5E4E1",
"1X c #E9E6E4",
"2X c #E6E9E1",
"3X c #EAEAE5",
"4X c #EEECEA",
"5X c #F0EEEC",
"6X c #EEF0E4",
"7X c #F4F6E9",
"8X c #F3F1ED",
"9X c #F2EEF0",
"0X c #F7F4F2",
"qX c #F9F6F4",
"wX c #FBF9F6",
"eX c #FEFDFB",
/* pixels */
", , , , , , , < % h x ( ( a e.w w.=.z N M.b.N.t.t.M.M.z.H B.l.! 9.j.).C *.Z.x z f % < , , , , 5 ",
", , , , , , , = 5 h . b t t V G r O q.S 9.9.q.F F q.9.9.Z q.r.y.S V   } q.B 7.  = < , , , < = d ",
", , , , , , < % h Y A $.&.W Y.(.W.Q 6Xn.8XeXeX].].eXeX0Xb.wX-X0X/.OXF.2X,X(.+X  q , , , , , = d ",
", , , , , < < @ N K n.!.{.E.A.x.$X7X[.b.Y.wX1XM.b.1XwXZ.Z.] R `.N.V.qXeX} v.oX  q , , , , , = d ",
", , , , , , 7   9.`.Z.].#X+X].9Xx.0Xl.eXM.3XY.;X$X(.4Xb.eX*.K.^.4X].oX<Xz E.XX  : < , , , , = d ",
", , , , , , 7   } 1XZ.0Xz.x.4XwX).j.OXeX;Xz.Z.0X0XZ.l.,XeXK.l.`.eX4XM.c.<.!..Xw n = , , , , = d ",
", , , , , , 7   7.;XB.eXoX .6.qX3Xz.0X8XwXM.@XqXqX@XN.eXU.@.i.4X:XqX].].1XZ. XU v % < , , , = d ",
", , , , , , 8   } <XM.d.' ..%XqX5Xx.wX5XeXZ.;XwXwX;XC.eXD.:XC.0XQ.I.oX|.4X/. Xy 8 , , , , , = d ",
", , , , , , 7   H 3X*.G.e.l.wXwXoXy.1XwX5Xj.(.qXwX(.j.5XeX1Xy.@X%Xo.s.Z.OXn..X  0 , , , , , = d ",
", , , , , , 7   H ;X^.$XXX`.+XqXx.$XM.eXA.OXA.3X3XZ.OXY.eXM.$XM.>X&.Y.oXn._ ] @ 2 , , , , , = d ",
"< = , , , < 8   9.4XZ.N.5X3XB.].OXeXV.|.M.wX+X(.(.+XwXM.|.Z.eX].].'.4.>Xk.] p.  3 , , , , < = d ",
", , , , , , 1 . Z z.H oX0XqX[.} K.*X4Xf.$XqX0XA.Z.0XwX$Xf.3X0X0XM.' -.6.(.7.k.. 8 , , , , < = d ",
", , , , , , < o N 7.B 1X3X[ B.{ W ;X0Xk.1X0XwXY.(.qXqX3Xj.3X6.6.i.>.5X>.=.l B & < , , , , < = d ",
", , , , , , 8   G +Xx.N.wX}.' p.+XeX_.Z./.wX1XN.M.1XeXZ.Z.].7XX.h.Z.8XqXp.R i.. 3 , , , , , = d ",
", , , , , , , * g u `.OXoX@X' J.(.5XC.7X:.3XY.;X;XY.3XM.eXz.3Xs.wX].oX#Xz.B.(.  q , , , , < = d ",
", , , , , < , $ k E ;.%XM.l.[ ( n.f.T.1.R.x.A.qX0XZ.k.1XeX#Xc.p.0XqXc.Z.#X_.oX  q , , , , , = d ",
", , , , < < 6 p i.I.O.=X'.|.~.{.J.u.K.-.2XL.#XqXqX#XB.wX8X0XB.L.p.Q.O.H.OX(.[.  q , , , , < = d ",
", , , , < * g P :.3X*. X[.[.=X3X0Xz.eX|.E.).,XqXqX<XZ.eX5XwXv.0X3X2.S.J { ).[.w n $ , , , , = d ",
", , , , , < = @ v 5.i [ x.Z.:X~.oXa.;XF._.x.(.wXqX(.j.4XwX<Xy.OXK.K.'.e.F.(.&XK k % 2 , , , = d ",
", , , , , , 7   S P.I._.E..XE.~.'.2X{ }.'.+XZ.1X1XZ.#XZ.eXv.1Xl.J.+X'.T.(.'. X+ : < , , , , = d ",
", , , , , , 3   9.8X_.K.$.6.=.d.{ W.B.oXN.wX#XL.L.#XwXN.].(.wXc.XXA.h.p.y.Y.$X  q , , , , , = d ",
", , , , , , 1   B c.i.z G.-XT.{ =.4X9Xf.;X0XwXZ.^.wXqX$Xj.3XH.R.N.].R.Q.,.H r.  6 , , , , , = d ",
"= , , , , , , 1 o ^ ..] 2XeXOXl.0XqX5Xk.1X0XwX(.(.wXqX1Xj.8XQ.1.b.oX=XO.,.G } p f * < , , , = 5 ",
"< , , , , , 1 @ v #.3.C.wX5Xb.a.|.eX(.L.Z.eX;XB.B.<XeXZ.L.Y.eXT.Z.Z.;X/ r '.:XJ 0 = < , , , , 2 ",
", , , , < % f E T Q L.D.5._.L.( M.4Xz.eXN.1XZ.1X<XZ.1XN.eXz.4XN.8X@X_.T.C.Y.R.+ : 2 , , , , , 5 ",
", , , , , < % h R }.&.o.y.C.6X3Xh.j.#XeX1Xj.Y.qXqXY.j.1XwX#Xa.].0XU.g.G.R.%.| $ 3 , , , , , = d ",
", , , , , , 6 . B J.W p.G. XwXOXJ a.wX8XwXZ.#XqXqX#XZ.eX9XqXz.9X~. .z d.$.x ! h = , , , , , = d ",
", , , , , , < $ c K j.4.O.&XI.2.L.M.qX4XeXV.;XqXqX;XZ.wX8XwXx.4XwXG.u $XU.z _ W h $ 2 , , > = d ",
", , , , , , < $ v  .Z.5Xa.^.U.!.@Xa.,XwX3Xj.(.0X0X(.j.3XwX<Xy.oX=X@.:.V.;X! | 4 h $ < , , , = d ",
", , , , , , 7   F U.%.P.}.].|.P.B.4Xz.eXZ.;XZ.1X1XZ.$XV.eXx.1XC.=Xh.[.OXN.T.L.  8 > , , , < = d ",
", , , , = < 8   8.oX~ 3.6X9XZ.h.P 7X(.).V.wX;XZ.Z.;XwXZ.).(.eXoX(./.;X7Xq.Y.$X  q , , , , , = d ",
", , , , , < < . B ) I :X~.%X[.C.p.h.0Xf.1X0XwX^.L.wX0X<Xj.3X0XqXV.s &XI.K.H 9.  ; , , , , > = 5 ",
", , , , , , 1 . B j.` G.~ *XoXx.wX8X4Xj.<X0XwXZ.Y.wX0X;Xz.+XT 2Xg.) 4X2.,.8.w.a l = , , , , = d ",
", , < , , , 3   S J.Y u K.9XV.Y.oXeX(.).N.wX;XZ.Z.;XwXZ._.(.R.g.^ n. XU m /.-Xi k * < , , , = d ",
", , , , , , < # j  .<.L.h.] [.wXz.3Xb.eXZ.$XZ.1X1XZ.;XZ.eXx.5Xx.!.$X[.i.M.].oX  7 , , , , < = d ",
", , , , , < 8   7.>X$.wXm.a.>.*XOXy.;XwX3Xj.(.0X0X(.j.3XqX$Xy.[.0Xp.w./.;Xn.a.  9 , , , , , = d ",
", , , , , , 3   G 4XP &X.XoX6Xp.4Xb.wX5XwXV.;XqX0X;XV.eX%XU.m.wX{.%.%.L. Xx u ; > , , , , < = d ",
", , , , , , 9   H 1Xa _ B.oXqX>.;Xx.qX8XwXV.;XqXqX$XZ.5XR.3.Z.{.T.%X .Z.Y e.g.  8 , , , , , = d ",
", , , , < * g U >.<Xb.8Xz.z.;. XoXf.#XeX3Xj.A.0X0XY.j.1X>.~ C.s h.>Xu.C.|.'.OX  q , , , , < = d ",
"= , , , , < ; w :.$X(.oXOX).L.qXb.4Xz.eXN.1XZ.1X1XZ.4X:.+.C 0Xf.6XOXoX+XZ.i.Z.  9 , , , , , = d ",
", , , , , , 8   7.;XM.B.4X5XZ.Z.oXeXY.A.Z.eX;XV.V.;X=Xs.W ].eX#XA.M.1X0Xy.a { X 2 , , , , , = d ",
", , , , , , 7   H 9XS ;XeXeXoXB.eXeXqXl.5X XqX_.`.qX1.1Xa.!.&.J.x.$X-XF.,Xs P - 2 , , , , , = d ",
", , , , , , 1   B b.2 M.B.V.k.r.Z.M.b.H N.a M.z.y.n.i.Z.r.=.Q v 0.z.f.b m.n l % < , , , , , = d ",
", , , , , , 3   G OXB.4X<X<X1X3X,X<XU.<.4.) ' E.1X<X1X;X1X4X_.L W ..Y E i x x $ 2 , , , , , , 2 ",
", , , , , , < & M S B G F G D *.>.G 7.C a g e g G G F G F G k t g n c f j f f * , , , , , , , 2 ",
", , , , , , , < &   .         a s     . - % : %             $ * % $ $ % * * * , , , , , , , , 2 ",
", , , , , , , , , 3 1 7 3 7 1 g 3 6 7 1 < < < < 7 3 3 7 3 7 < < < < < < , < , , , , , , , , , , ",
", , , , , , , , , , , , , , , * , , , , , , , , , , , , , , < , < < = < , , , , , , , , , , , , "
};
