/* XPM */
static char *_8b87eadcfbe4d9b8a258edbd1eeabbf29iHrK4gHQonHjn8[] = {
/* columns rows colors chars-per-pixel */
"48 48 8 1 ",
"  c None",
". c #181220",
"X c #251E30",
"o c #551C1F",
"O c #00627C",
"+ c #854024",
"@ c #CD9152",
"# c #00AED7",
/* pixels */
"                                                ",
"                                                ",
"                                                ",
"                                                ",
"                      XXXX                      ",
"                    XXXXXXX                     ",
"                   X....XXX                     ",
"                  XX....XXXX                    ",
"                  X......XXXX                   ",
"                  X......XX..                   ",
"                  X.......XX..                  ",
"                  X.......XXXX.                 ",
"                  ..O..#..XXXX.                 ",
"                 X.........XXX.                 ",
"                 X.........XXX.X                ",
"                 XX.......XX...X                ",
"                 XXX.....XXX...X                ",
"                 XXX.....X....XXX               ",
"                 .XX....X....XXXX               ",
"                X...X..XX....XXXXX              ",
"               XXX..X..XX...XXXXXX              ",
"              XX.XX.X.XXX..XXXXXXXX             ",
"              X.X.X.X.XXX..XX....XX             ",
"             XX.X..XX.XXXX....XXXXXX            ",
"             X.XXX..XXXXX...X...XXXXX           ",
"             XXXX++.XXXX..XXXXX..XXXX           ",
"             X.@@o..XXXX++....XX.XXX.           ",
"             X.+oo..XXX+@@@+o.XXXXXX            ",
"              ..@@..XXXX+@@+o.XXXXX.            ",
"               ......XXX+++...XXXX..            ",
"               ....X.XXX......XXXX.             ",
"               ......XXX..X...XXX..             ",
"               ......X.X..XX..XXX..             ",
"               ......X.X..XX..XXX..             ",
"                .....X.X.X.X..X.X..             ",
"                 ....X.X.X.X..X. ..             ",
"                 ..X...X.X...... ..             ",
"                 ..X...X.X......  .             ",
"                 . X...X.X......  .             ",
"                   X...X.X.X.. .                ",
"                    .X.X.X. ..                  ",
"                    .X.X.X. X.                  ",
"                    XX.X.X   .                  ",
"                      .X.X                      ",
"                       X.                       ",
"                        .                       ",
"                                                ",
"                                                "
};
