/* XPM */
static char *_8d2a867e0c84928eb450e3d333f17dbSAAX4uGtOt7zAo4f[] = {
/* columns rows colors chars-per-pixel */
"48 48 108 2 ",
"   c None",
".  c #070707",
"X  c #080506",
"o  c #070807",
"O  c #07070A",
"+  c #09070A",
"@  c #070808",
"#  c #090B0B",
"$  c #190000",
"%  c #17000A",
"&  c #19000E",
"*  c #0A100F",
"=  c #0E0D12",
"-  c #00001B",
";  c #030A1E",
":  c #1A0513",
">  c #100D14",
",  c #16001D",
"<  c #140E1C",
"1  c #180A19",
"2  c #071013",
"3  c #0C1412",
"4  c #0F1917",
"5  c #0F121D",
"6  c #0E1C19",
"7  c #101416",
"8  c #101917",
"9  c #16111E",
"0  c #19111F",
"q  c #101B19",
"w  c #21001B",
"e  c #28061B",
"r  c #0F221D",
"t  c #10221E",
"y  c #1E201E",
"u  c #010D20",
"i  c #00022B",
"p  c #020E2D",
"a  c #001023",
"s  c #0C1022",
"d  c #0F1B2D",
"f  c #161321",
"g  c #1A1422",
"h  c #171827",
"j  c #1A1926",
"k  c #1C1628",
"l  c #141B2E",
"z  c #181D2D",
"x  c #1B1C31",
"c  c #201622",
"v  c #241A23",
"b  c #2A1922",
"n  c #23132D",
"m  c #231C2E",
"M  c #2A1F2F",
"N  c #341D23",
"B  c #391D21",
"V  c #3F1F2C",
"C  c #251E31",
"Z  c #281F31",
"A  c #0F2520",
"S  c #112621",
"D  c #1A2522",
"F  c #112923",
"G  c #18202E",
"H  c #152D29",
"J  c #1A2C2C",
"K  c #16312C",
"L  c #1A322D",
"P  c #162634",
"I  c #1A3732",
"U  c #1B3934",
"Y  c #21202F",
"T  c #2B222F",
"R  c #222D29",
"E  c #36202D",
"W  c #252132",
"Q  c #292032",
"!  c #4E0A1A",
"~  c #59251E",
"^  c #452D24",
"/  c #4B2F27",
"(  c #462C2D",
")  c #563C29",
"_  c #593F2C",
"`  c #513C36",
"'  c #673B29",
"]  c #753321",
"[  c #793922",
"{  c #7F3F28",
"}  c #5F4236",
"|  c #7F442B",
" . c #164355",
".. c #08566D",
"X. c #8A4727",
"o. c #844628",
"O. c #884729",
"+. c #864829",
"@. c #8A4D2C",
"#. c #885031",
"$. c #925430",
"%. c #B7804A",
"&. c #BB834B",
"*. c #C2854A",
"=. c #C4894E",
"-. c #CC8F50",
";. c #CF9353",
":. c #0995B9",
/* pixels */
". . . . @ @ . . . o . . . @ . . o . o . @ . . @ @ @ @ . . . . . . o . . o . . . . . . o . @     ",
"@ . . @ . . @ . . o @ . . . o . . . o . . . @ @ O O . . . @ . @ . o . o . . o . o . . . o @     ",
". . @ . . . . . . . . o . . @ . @ . . . @ @ . @ O @ @ . . . . . . o o X @ # . . @ . o . o @     ",
". o . . @ . @ . . o . + @ . . + . . . @ @ @ + = + + O X @ o . @ X X o * * 4 o X . . @ @ o @     ",
". . . . . . @ . . . @ . . . . . . + @ . . > m C C m q 7 . . . X . 2 3 3 # q 3 3 3 2 . X X X     ",
"@ . @ . . o . . . @ . . @ @ . @ . o @ . + m Q Z Z C Z m 8 7 3 3 # 3 q # # @ 4 q q 8 3 4 3 3     ",
". . . @ . . @ . o . . . . . . . . . o . > C C m g f g k m > # # . o o . . . o o o o @ # # #     ",
". @ . . @ . @ . . . @ . @ . . @ o . . > m C C m f 0 < f W m @ . X . . o 3 * 3 * o @ @ . . X     ",
". . . o o . . . . . @ . . . . . @ @ + m Z C Q g < g g 9 k m 7 * * # * q q 3 # 6 q q 4 # * 2     ",
". @ @ . . . @ . @ . . + . . . o @ + + f g C m g k f 9 f g m q 3 3 2 3 3 3 # X * 3 3 3 * 3 3     ",
". . . . o . . . . . o . . . . . . + f f C C g 1 $ 1 g % g m + # @ . X X X # 3 @ X . X X X #     ",
"@ . @ . . . o o o . o . . . . . @ g C C C C < G  .z 0 P g m 3 7 4 3 * 3 3 3 q # * * X * # 3     ",
". . o . . o + . . . @ . + . . . @ g Z Z m W $  .:. .1 ..P : 7 6 t 8 4 4 4 r r o 3 q 3 6 # r     ",
"@ . . . . . . . . o . . . . . . # g C C C g 1 G  .z 0 P g g m = 3 6 4 q r t r . r F q q 3 #     ",
". o . o @ . @ @ . . . @ o . . > m g n C m g f 1 $ 1 f & < k C 3 * r 3 r r r 3 . r r r r A 3     ",
". + . . . . . . . @ o . . # # 7 m k 0 g m m g f z g 9 k f C C 7 * o . X X # # # # # # # @ 3     ",
". . . o o . . . . . X X # q q q m g 9 f C Z m 0 0 0 0 g C C C h t 8 # . * q 4 4 4 8 8 8 8 t     ",
". @ . . . . o o . X X X 8 q q m C m g f f g m g f 0 0 0 C C m r 8 3 t # # q r r r r 6 r t S     ",
"@ . . . . . . . . . 2 8 8 q 7 C Z C m f 0 < g m g 0 0 f m m k A S t F r * F F F F F F F F F     ",
"o . o . . o . . . . @ = @ = m C m C Z g 0 0 f C C f 0 C g 9 k m q t t 8 o * 3 6 6 6 6 4 q q     ",
". . @ . . . . . . o o o X > m W C C C m g f f C C g g m g f m W Y 7 # o X X . # o . o @ # o     ",
"@ . . . X . X o * * 2 6 > m M m m m m Z m f 0 m W m g k g m m k Q Y t S t * * 6 6 q 6 3 3 8     ",
". @ . @ * * * 6 q * # 6 q Q C k g k g m m g g m C m g m v m v k k Y J K H * # 6 t F t r F K     ",
". . . * 3 3 3 * 3 # X 7 m C m m C n 9 f f f M M C m k C C u a Q b m Y S o * . # * 4 r r H H     ",
". @ . . X X @ * 2 * 7 m Q C C m g g g m v v h m T m C C f B V i i g Y = # # 6 # # 4 . . X X     ",
". . @ @ . 3 8 q q q q Q W C C g g m m m l i , , l C C x b [ { } ` T m L H t F 3 4 F L L 6 7     ",
"@ . @ . o @ 8 4 4 8 q f m C m g m T g c b / +.@.( x C m v e ~ %.&./ p R F t F * 3 F F K F #     ",
". . . . o . o # 7 q q 3 m Q C m C m g ! +.=.;.*.| n C C s f ' #.@.E l D t F F 3 4 S S F 4 .     ",
". . o . . . . @ q 8 4 @ g C C C C m v ! O.-.;.$.V W Z T - ^ &.%.B 2 q t F 6 * X # 3 r 6 @ 3     ",
". X X o # * . o 3 * * 3 9 g C C C m g s B +.X.] M x Z g f g ) _ Y 2 7 * 3 t r 6 6 6 6 2 3 @     ",
"o 2 * 4 8 q 3 # . 3 r F S g C C C C g < ; , , N M C m f m f - - 9 F 2 . * K K I U U K F S t     ",
"o * 3 3 q 4 8 8 # 3 + 3 q f g m Z m f 0 g m f u C C m f 0 g v b 9 r r 4 4 r r F H H r r F S     ",
"o . X o # 3 6 4 X X o X @ f f C W C f f m Z g c m g m g < f f f g 7 q t * t 6 t t r t r r 6     ",
"o o . . X 3 6 3 * X o o @ 9 g Z C m g 0 Z m g g m g m g 0 0 f g < 7 q r X # 3 * 4 * r 4 4 4     ",
"# @ @ @ o # o # # o o # + 0 f m c m f g m g m g m g m g 0 f f 9 # # # * # . # # # # # # # *     ",
"4 8 3 8 4 q 8 8 6 * * q q g g 7 g m f g m g m g m g m g 0 f 0 t r r F r t * * t t r 4 4 4 t     ",
". X . X # 6 q q 6 3 # 3 3 f 0 3 g g 9 0 g g m g m g 0 g m g 0 q 8 8 t 8 q * # 3 8 8 q q 6 q     ",
". . o o X # * * * # X . @ f # > 0 g f f 9 g m g m g 0 g C g 0 7 * * * * * # X * * * * * * 3     ",
". . . # 3 3 * 2 * 3 3 # 3 0 7 3 0 9 0 0 g g m g m g < g C 9 < # 3 * 3 2 * * 8 o * 3 * 3 # #     ",
". . . # # 4 6 q 8 6 6 = + q q q 9 7 0 g m g m k m g 0 g m q 2 3 q q 8 q q q q # 4 q q q * 4     ",
". . . . X o # 8 4 4 6 # . o + q = @ f g > g m c m g n g 8 q * 3 8 4 8 4 8 8 8 # 3 4 8 8 * 3     ",
"o o . . . . . + o o @ @ . . o @ @ @ g m @ 0 m g m g Z g . . @ . o o . . # q 8 # o o @ @ . @     ",
". . o . . . @ . o . . . o . o . @ + < > X > m k m g M m # @ . . . . o . # 8 # . o . . . . .     ",
". o . . . . . . . o o . . . o . @ @ + . @ > n g m g # > + @ o . @ . . . . . . o o . o . . @     ",
". . . o . @ . . @ . @ . @ @ . . . . . . @ X = g m = . . @ . . o . . @ . + o . . @ . . . @ @     ",
". @ @ . . . . @ . . . . . . @ . @ . @ . X @ @ < > . @ @ . . . + . o . . . o o . . . o . . @     ",
"@ . . . . @ . o . . . @ . . . . @ . . @ @ @ @ @ . . @ @ @ . @ . . . @ . . . . @ . @ . o o +     ",
". . . @ . . @ . . @ . . @ . @ . . X @ X @ X . . @ . @ . . . . . @ @ . . @ . . . . . . o . @     "
};
