/* XPM */
static char *_6271f863e39474eb1ba011e85513755z0kVwp8AlLbRTDS0[] = {
/* columns rows colors chars-per-pixel */
"48 48 170 2 ",
"   c None",
".  c #070707",
"X  c #080506",
"o  c #070807",
"O  c #07070A",
"+  c #090709",
"@  c #070808",
"#  c #090C0B",
"$  c #190000",
"%  c #17000A",
"&  c #19000E",
"*  c #0A100F",
"=  c #0D0D12",
"-  c #00001B",
";  c #030B1E",
":  c #1A0211",
">  c #120F14",
",  c #16001D",
"<  c #150E1C",
"1  c #180A19",
"2  c #071013",
"3  c #0C1413",
"4  c #0F1917",
"5  c #0F111F",
"6  c #0F1C19",
"7  c #111316",
"8  c #1C1111",
"9  c #101917",
"0  c #16121E",
"q  c #19111F",
"w  c #101B19",
"e  c #1D1C1A",
"r  c #21001B",
"t  c #28061B",
"y  c #0F221D",
"u  c #11221E",
"i  c #010D20",
"p  c #00022B",
"a  c #01092C",
"s  c #001023",
"d  c #0C1022",
"f  c #0E162C",
"g  c #161321",
"h  c #1A1321",
"j  c #191322",
"k  c #191222",
"l  c #181221",
"z  c #1C1323",
"x  c #191420",
"c  c #181422",
"v  c #191422",
"b  c #1A1422",
"n  c #1A1423",
"m  c #1B1423",
"M  c #1B1523",
"N  c #1A1523",
"B  c #1B1524",
"V  c #1A1625",
"C  c #1C1525",
"Z  c #1C1625",
"A  c #1D1727",
"S  c #1A1423",
"D  c #161F20",
"F  c #171827",
"G  c #1B1827",
"H  c #191A25",
"J  c #1C1628",
"K  c #171F2D",
"L  c #12192F",
"P  c #181C2B",
"I  c #181F2D",
"U  c #191B2F",
"Y  c #1B1C31",
"T  c #201622",
"R  c #241A23",
"E  c #2A1922",
"W  c #23132D",
"Q  c #221A2B",
"!  c #221B2D",
"~  c #211B2C",
"^  c #211C2C",
"/  c #231D2D",
"(  c #231C2D",
")  c #231C2E",
"_  c #231D2E",
"`  c #231D2F",
"'  c #221D2E",
"]  c #231E2F",
"[  c #241D2E",
"{  c #241D2F",
"}  c #251D2F",
"|  c #241C2F",
" . c #241E2F",
".. c #231C2E",
"X. c #2A1F2F",
"o. c #341D23",
"O. c #391D21",
"+. c #3F1F2C",
"@. c #231D30",
"#. c #241D30",
"$. c #251E30",
"%. c #251E31",
"&. c #241F31",
"*. c #261F31",
"=. c #261E31",
"-. c #261F32",
";. c #271F32",
":. c #251E30",
">. c #281F31",
",. c #0F2520",
"<. c #0F2520",
"1. c #152122",
"2. c #102621",
"3. c #122723",
"4. c #132522",
"5. c #112521",
"6. c #102822",
"7. c #102823",
"8. c #112923",
"9. c #122C26",
"0. c #112924",
"q. c #18202E",
"w. c #152D29",
"e. c #16312C",
"r. c #19322D",
"t. c #162634",
"y. c #1A3732",
"u. c #1B3934",
"i. c #23202F",
"p. c #23202F",
"a. c #2B222F",
"s. c #36202D",
"d. c #272033",
"f. c #232436",
"g. c #242031",
"h. c #282033",
"j. c #282034",
"k. c #292031",
"l. c #4E0A1A",
"z. c #59251E",
"x. c #452D24",
"c. c #4B2F27",
"v. c #462C2D",
"b. c #563C29",
"n. c #593F2C",
"m. c #513C36",
"M. c #673B29",
"N. c #753321",
"B. c #793922",
"V. c #7F3F28",
"C. c #5F4236",
"Z. c #7F442B",
"A. c #174052",
"S. c #164356",
"D. c #164457",
"F. c #08566D",
"G. c #8A4727",
"H. c #844628",
"J. c #884729",
"K. c #864829",
"L. c #8A4D2C",
"P. c #885031",
"I. c #925430",
"U. c #B7804A",
"Y. c #BB834B",
"T. c #C2854A",
"R. c #C4894E",
"E. c #CC8F50",
"W. c #CF9353",
"Q. c #0995B9",
/* pixels */
". . . . @ o . @ @ . + . . . . . o o . @ . . @ + . . X @ X @ . @ . . . . . o . . . @ . . . @     ",
"@ . . @ . . . . . . . . . . . o . . . . . @ @ O O @ @ X . . . . . . o o . . o . o . @ . . @     ",
". . @ . . . @ . @ . @ . @ . @ . . o . @ X . . @ @ @ @ @ . @ . @ . . . . @ @ . o @ @ . . o @     ",
". o . . . @ . . . . . . . . . + . . + . @ @ # # = O X X @ . . . . . . * * 9 @ . . . @ o o @     ",
". . . @ @ . @ . @ . . . . . . . o . . . # > ) ;.#.&.9 3 . . . . . 3 3 4 # w 4 3 3 3 . X X X     ",
". @ . . . . . . . . . @ @ . @ . o . . > ! #.;.;.;.;.&.w 3 4 3 3 o 4 9 @ # # 3 w 9 9 4 9 3 3     ",
"@ . . . . @ @ . @ . @ . . . + . . + > ! J B l l ! ;.&.= @ @ @ # . o o X o . o o o @ @ @ # o     ",
"o . @ . . . o . . . . . @ . + @ . # } >.l < 0 l ! ;.g.) = . X . . . o o 2 * 3 * . @ @ . . .     ",
". . . @ . o . . . . . + . @ . @ . = ;.C 0 l 0 0 n ;.;.&.) = # * # # * w w 3 # 9 w 9 9 # * 2     ",
"@ . . . . . @ . @ . . o . . . @ . = ! B g l l F l ! &.B l = 3 3 3 3 3 3 3 * X * 3 3 3 * 3 3     ",
". @ . @ . o . . @ . o . . @ @ @ . = ) B % l 1 $ 1 B ;.) l 0 @ # o X X X X # 3 @ . X . X X #     ",
". . . . o + . @ . . o . . @ @ @ . = Q G t.q q.D.K 1 &.;.;.;.l 3 3 3 2 3 * 3 w # * * X * # 3     ",
"o . . @ . . . . . . . @ . . . o . = : t.F.1 A.Q.D.$ f.} ;.;.l 3 u 9 w 4 4 y y o 4 6 4 4 # y     ",
". @ o . + . . @ . @ . o . o . . # ! l F t.0 q.D.q.1 B } ;.&.g = 3 w w 4 6 u y . y u 9 4 3 #     ",
"+ o . . o o . . . + o . @ . . . # ) J < & M 1 $ 1 l l } } ) B U 7 u 4 y y y * . y y y y 6.3     ",
". . . o . . . o o . . . . # # # > ;.;.l g l g P g M } } M q Z } 3 @ . . o # * # # # # * @ 3     ",
"o . o . . o o . . . . . # 4 w w 3 ;.;.! l 0 l 0 l } ;.! l < C &.w w 3 . * w 4 9 9 9 9 9 4 u     ",
". . . . . . . . . . . X 4 4 w 3 = | ;.@.l 0 q 0 M ) l l l n ) ;.} 9 u @ @ w y y 6 u y y y u     ",
". @ . o o . . . . . 2 9 9 4 # @ = B ;.! M 0 q M ) M 0 0 l ) ;.;.;.1.<.y 2 0.0.0.6.0.u 0.0.9.    ",
". . . o . . . . . . # # # # 3 w ) B 0 B ) M g ) } l 0 l M ) ;.) g.g.3.4 @ * 4 w 4 6 6 4 w w     ",
"o . . . . . . . . o . o . . > ^ d.) l l ) M l ) &.l 0 M ! ;.&.&.g.;.7 @ . . o o o o o @ # @     ",
". @ . . X . . . * * * w * @ ) ;.B &.&.B ! B ) ;.) l l ) ;.&.) ) ) ;.) 4.4.# 3 4 6 w 4 4 3 4     ",
". @ . # * * * 4 w * # w w 0 } A U R | C Q M ) ;.;.l l &.) l B M B ;.>.w.9.# # 4 u 9.6.y 3.e.    ",
". @ . # 4 3 3 * 3 # X * 3 p.} E a.s ; ) ) B ) g.;.| l l l l ! ! } } ;.p.7 2 . * * 4 6 y w.w.    ",
"o . o . X X @ * 3 * 4 o 3 p.C p p +.O.Z @.#.&.;.) F R T Q B M M ) ;.) j.} 3 6 * # 4 . . X .     ",
". @ . @ . 3 9 w 9 9 4 * 7 ) k.m.C.V.B.E Y >.&.L , , a L ) } ) l M ) g.g.g.w 0.2 9 3.r.r.w 3     ",
". . . . o @ 4 4 4 4 4 * 8 a c.Y.U.z.t R ! ;.Y v.L.K.c.E T M } ) B ) ;.;.G y 0.* 3 0.0.e.0.#     ",
". @ . @ o . o # 9 4 w * > f o.L.P.M.0 d >.Y W H.T.W.R.K.l.T ) g.) ) g.p.4.0.0.3 4 4.4.0.6 .     ",
". . o . . . . @ w 9 4 o * e 2 s.U.Y.x.- a.p.&.+.I.E.W.J.l.T ) } ;.&.) B 4.6 # . # 3 y 6 @ 3     ",
". X . @ # * . o 3 * * * 2 * 2 R n.b.Z l M } Y } N.G.H.O.< Z } } &.&.B 0 3 u u 6 6 6 6 * * @     ",
"o 3 * 4 w 9 3 # . 3 y 0.0.0.3.g - - l Q l ) ;.a.o., , ; 5 M ) g.g.) g . 3 e.e.y.u.y.e.6.u 4.    ",
"o * 3 3 9 9 w 4 # * # 3 6 y u M R R l l M ) ;.) ; g ) Z q l } g.) B g 4 3 y y 9.9.9.y 6.0.4.    ",
"o . X . o 4 4 4 . X . . @ 3 w G l l l < l ) B ) Z q X.} l l } ;.) M 0 y 3 u 4 6.y y 6.y y w     ",
". . . . X 4 4 4 * . @ o . @ w g l l l l B ) M ) l l ) ;.0 l } ;.) B 0 u . # 3 * 4 # 6 4 4 9     ",
"# @ @ @ @ # # # o o o @ @ @ # # < l l < M ) B ) B Q C ) g M ) C ) B 0 = # . @ # # * o # @ *     ",
"4 4 3 4 4 4 4 9 4 3 * w w 4 3 4 9 M l l l ! C ) C ! M ) l M } M 6 g M <.u # 3 u y u 4 4 4 u     ",
". . . X # 4 9 w w * # 3 3 . . 2 w l C ! l 0 M ) C ) M 0 g 0 B g 4 g n 4 w 3 @ 9 9 9 w 9 6 w     ",
". . @ o X # * * * # . . X X o * 3 l l #.B 0 l } B ) M 1 l l l 0 3 3 l 3 2 # X * 3 * * * * 3     ",
". . . * 3 3 2 3 3 * 3 # 3 3 3 3 = < 9 } C < l ) C ^ M M M 0 g l 3 3 q = 3 3 3 @ * 3 * 3 @ #     ",
". . . @ # 6 9 9 9 w 9 * # 9 w 9 3 @ 3 ) B l M ! A ^ C ^ M 0 7 0 w 9 9 w 9 w w @ 4 9 w w 3 4     ",
". . . . . + @ 9 9 4 w # . @ # w = X . # l ! Z Q C | l > C Z # 3 9 4 9 9 9 9 w # 3 9 9 w # 3     ",
". @ . . . . . @ @ o @ . . . . @ @ @ . X C ;.C ! C | l . Q C + . @ o . . # w 9 # o o @ @ @ @     ",
"@ . . o o . @ . o o o . o . . . . @ . = Q | C | C } > . > < # + . . . . # 9 # . o o . . . o     ",
"+ . . o . . . . o o . o . . o . . . . @ = # l } B Q = @ @ @ + . . o . . . . . . . . . o @ @     ",
"o . . . @ . . @ . @ . @ . . . @ . . @ . . + = ! M # @ @ . . @ @ . @ . . o o . . . o o . . @     ",
". o . o . . o . . . . . @ . . . . @ . . @ @ . = 0 @ @ . o . . . o . @ . . + . o @ . . . . @     ",
"@ . . @ @ . @ . o . . . @ . o . . . . . + . @ X @ @ . . o . . . . . . . @ . . . . . . o o +     ",
". o . . . . . . . @ @ . . . . @ . @ . @ . . X @ + . @ . . . o + @ . @ . . . @ . @ . . o o +     "
};
