/* XPM */
static char *d344dc71247b4817b3866a286bf1e91eClNPQ3ysdN27jCtX[] = {
/* columns rows colors chars-per-pixel */
"48 48 23 1 ",
"  c None",
". c #070606",
"X c #080506",
"o c #070807",
"O c #090708",
"+ c #070808",
"@ c #090C0B",
"# c #0A100F",
"$ c #0C1412",
"% c #0E1917",
"& c #0E1C19",
"* c #101917",
"= c #101B19",
"- c #0F211D",
"; c #10221E",
": c #0F2520",
"> c #112621",
", c #112923",
"< c #152D29",
"1 c #16312C",
"2 c #19322D",
"3 c #1A3732",
"4 c #1B3934",
/* pixels */
"..ooXooXoX+..+...+......+o....+.....oo.....+oO  ",
"ooXooXoo.+.+..+.+X.++X+.+X..+.+..X..oo...+..oo  ",
"oooo.XX...+.+X+.Xo.++o....+......ooX@@..+++.oO  ",
"oooX+oo.+..X.o.+++....+.+...++.+X.o#@*+...+oO+  ",
"...+...+.+.o+X+...+..+.+X#$$.+...$$%@=%$$$....  ",
"+.+X.+o..+.+.o...+..o...#*&&$$$$@$%o+@$=**$$$$  ",
"..+...oX.....+.+..++o.++++++++@@.ooXOoo+..@@@@  ",
"o+..++.++X++...++.X.X+..oX++@..X..Xo$$$@.@....  ",
"X.+.+...++oX+.o..++.XoooX@**$.##@@$%=$@===%@@$  ",
"+.+.X++....+..X+...X+ooXX$$#.@$$$$$$$@X$$$$$$$  ",
"......+..+.+.+.++...X.X@+...o..@.XX.X+$+XX..X@  ",
"++X++...o....+..oo..$$#@&+$$.@##$$$$$$=@#$X@@$  ",
"...+.oX+X+.+..+.X..$&=*%&@$&$*#%;$=%%--.$=$%@-  ",
".+.++Xo.+.+X.+..+.+$%*%&%@::%&$.%==*&,&.-:==$@  ",
".X....++...o......$$$$$$#.&:&::$@;%---%X-:-->$  ",
"+o+.+....++..@@@@++X.o@@@@@@@@+$@+..+@@@+@@@+$  ",
"+.X+ooo....X@*&&@..@$.@&*****=====#.@=$%=****;  ",
"..+.Xoo+.X..**&$+$$*&$+&-&--&-:&%%;@@=---&;-;;  ",
".++.+.....#**&@+#&$*::#:,::,,,,::-,-#,,,,,>,,<  ",
".....+....@@+@$$**-::-.#*&&&&&&=$-:%o#%&&&&%==  ",
"+..+X..X..ooX.+@++@##@+Xo+OOOo+@+o#o..++.X++++  ",
"X+...X.o#$$&@X.+**-;:::#$**&%*$$;,-,>@$&&&&$$=  ",
"...@###%&#@**$#o$&**&::$@&:,>;,<,3<1<@@%;,,-,<  ",
"...#$$$#$@.#$##o$$$#&&#@X@$$&=<<=><>@@X##%&-<<  ",
"......@#$#$O#%$$@.#$@#$@$##%#@XX#+XX+@%@$$OXXX  ",
"o+++.$%*===#@:,>#X@==%&::$$,::%@-:>2<;,$$,22=$  ",
"X...X@$&%%%@Xo%,%.oo%%%:,$$::,%@,&:<,>,#$,,2,@  ",
".++.ooo@%%&#oo&,%Xo@%$o-,$.@::&X---->>,$$>>,&X  ",
".XoX..X+&*$o#%-&@..#$.X@$.#X+-@#%-&-:&$.#$&&O$  ",
".XX+@#.o$#$$$##$#o##X.+#$$$$$##+###$$:&&&&&$#@  ",
"o$#*&&$@o$:,,,,,:-:,%X$,:::::,:-,,#X$<23441,:>  ",
"o$#%&$**o$@#&->:,:&--%o@@$%$%-,-&--%$:-,<,::,,  ",
"o...@$*$X.X.O%&:%****:....$&$&&**$&:#:*::&:>&&  ",
"X...X%**$.++.+*&*&#$&-Xo..o@****#$&-X@$#*@&&*&  ",
"+@+@++O@+.++++@+o@@@@#@oo@@@+@@@@@@#@Xo+@@++@@  ",
"$*$$**%=&$#&&*$**-&-:::##-::***=&-::>@$:::***>  ",
"+...@&==&$@$$X.#&**$&%=#X.#$%%==*&;==#@****=%=  ",
"oo++.@#@#@.XXX.$#$#XXX#@...X###$##@@#@X#$$@$$$  ",
"o..@$$#$$#$@$$$$@@$$$##$$o$$$$@@$$#$$#%X@$@$@#  ",
"X+.@@&&&*&&#+*&*$+#*&%&&*@@%*=$#=&=====@$===$$  ",
"+....++&**&@.+@&$...o@$#&@.+*&##&*&$&&*@$=*=@$  ",
"..+XX.X++X+.X.X++...X+.++X..+++.+++.@&$@O+oooO  ",
".++o....o+o..+X.+.+.o...++.+X++.XXX.@*@.ooooOO  ",
".X..+.+.X.X+o..+.Xo.X++..X.+.XX+o++XXX..ooooo+  ",
"++...+.+..+.X+....++...+++.o....X..+.+++ooXooO  ",
"...+.+oX++X.+..++X..++....+X+.+..+...+..XXoooO  ",
".+oo..o+...+.+.+.+.+.XX+...+X+..+.+.oXooooooO+  ",
"..+X+.X..+.+.Xo..+...+o.++..o.++.+Xo.+XXoXooo+  "
};
