/* XPM */
static char *_bb2cc3e2c1041e6a7635690ef6758a6G0IcyrkKxh4fMz7T[] = {
/* columns rows colors chars-per-pixel */
"48 48 249 2 ",
"   c None",
".  c #070606",
"X  c #070807",
"o  c #070808",
"O  c #090B0B",
"+  c #08080A",
"@  c #1C0C0B",
"#  c #190505",
"$  c #0B100F",
"%  c #081306",
"&  c #1D1D0A",
"*  c #01011B",
"=  c #050813",
"-  c #0C1412",
";  c #0F1917",
":  c #0F1B19",
">  c #071713",
",  c #131414",
"<  c #101B19",
"1  c #1C1D1C",
"2  c #161816",
"3  c #241D1A",
"4  c #2A1E1C",
"5  c #281814",
"6  c #331B17",
"7  c #240B07",
"8  c #0F211D",
"9  c #12221F",
"0  c #19261B",
"q  c #0D2D0B",
"w  c #2B201F",
"e  c #262319",
"r  c #37221D",
"t  c #2E2811",
"y  c #00022A",
"u  c #021A28",
"i  c #1A1D24",
"p  c #000232",
"a  c #01023C",
"s  c #080C39",
"d  c #031737",
"f  c #161B39",
"g  c #122422",
"h  c #192725",
"j  c #17362C",
"k  c #18223C",
"l  c #003839",
"z  c #242424",
"x  c #2B2423",
"c  c #242A26",
"v  c #2B2B2B",
"b  c #2B2927",
"n  c #332D2C",
"m  c #392725",
"M  c #34332C",
"N  c #3B342C",
"B  c #292D38",
"V  c #332835",
"C  c #283437",
"Z  c #343333",
"A  c #35393B",
"S  c #3B3B3B",
"D  c #3A3936",
"F  c #2B3727",
"G  c #3C1820",
"H  c #4E1C14",
"J  c #48261E",
"K  c #542219",
"L  c #6A281B",
"P  c #792B1C",
"I  c #6D341E",
"U  c #500021",
"Y  c #462B26",
"T  c #542B24",
"R  c #423E3B",
"E  c #463837",
"W  c #4B352B",
"Q  c #662D23",
"!  c #653229",
"~  c #793024",
"^  c #7F1000",
"/  c #36771A",
"(  c #377A1B",
")  c #2F6A11",
"_  c #004A26",
"`  c #105C2C",
"'  c #38413F",
"]  c #1C5810",
"[  c #4C7419",
"{  c #47462B",
"}  c #43433E",
"|  c #4A4938",
" . c #585137",
".. c #49692B",
"X. c #6B6D33",
"o. c #736122",
"O. c #010243",
"+. c #150043",
"@. c #142E45",
"#. c #353941",
"$. c #2C3755",
"%. c #2B1844",
"&. c #5C3B43",
"*. c #3C4143",
"=. c #434443",
"-. c #4B4B4A",
";. c #474748",
":. c #545448",
">. c #464956",
",. c #455152",
"<. c #545554",
"1. c #6E5C54",
"2. c #6B6946",
"3. c #6E6C53",
"4. c #666666",
"5. c #75716F",
"6. c #880000",
"7. c #900100",
"8. c #950600",
"9. c #8A0A16",
"0. c #A40300",
"q. c #A30900",
"w. c #A80F09",
"e. c #882D1D",
"r. c #972A17",
"t. c #92331C",
"y. c #BA2B14",
"u. c #A73219",
"i. c #B3351B",
"p. c #AE280B",
"a. c #883325",
"s. c #973722",
"d. c #8A3A35",
"f. c #8D3E39",
"g. c #B13B24",
"h. c #CC1E05",
"j. c #88771A",
"k. c #BA731B",
"l. c #95473C",
"z. c #8C4C25",
"x. c #AB482D",
"c. c #AB4831",
"v. c #BD4D3B",
"b. c #857631",
"n. c #8A742A",
"m. c #AD4017",
"M. c #E15C25",
"N. c #9B564A",
"B. c #8B514D",
"V. c #AE5144",
"C. c #A3576C",
"Z. c #8C7C71",
"A. c #B47E6E",
"S. c #A37670",
"D. c #A36456",
"F. c #EA5658",
"G. c #EA7457",
"H. c #CE776A",
"J. c #C16253",
"K. c #359906",
"L. c #359506",
"P. c #30870A",
"I. c #3BA903",
"U. c #008C04",
"Y. c #489111",
"T. c #51AB0E",
"R. c #69A507",
"E. c #5BA922",
"W. c #76832F",
"Q. c #59C604",
"!. c #5ED003",
"~. c #67CC05",
"^. c #71CE06",
"/. c #B68C1D",
"(. c #98BD0D",
"). c #AFB411",
"_. c #938A2F",
"`. c #A99935",
"'. c #B19C2E",
"]. c #BAA834",
"[. c #B3A32C",
"{. c #8B8C1C",
"}. c #F3BD1B",
"|. c #D39338",
" X c #C5A727",
".X c #D0B82E",
"XX c #C5B51C",
"oX c #92D101",
"OX c #B6CF0B",
"+X c #D5C618",
"@X c #C6C115",
"#X c #E8CC1B",
"$X c #FDDC1B",
"%X c #FAD719",
"&X c #FAD113",
"*X c #FFE31B",
"=X c #FEE91B",
"-X c #FDF219",
";X c #D6C62D",
":X c #E8C928",
">X c #EED329",
",X c #F7D724",
"<X c #E8D038",
"1X c #FCE224",
"2X c #FFFD2D",
"3X c #A69A48",
"4X c #B5A543",
"5X c #AFA240",
"6X c #948375",
"7X c #B5806F",
"8X c #A68778",
"9X c #B68472",
"0X c #E49E57",
"qX c #DAC644",
"wX c #898887",
"eX c #988C86",
"rX c #91908D",
"tX c #9A9D9D",
"yX c #989896",
"uX c #A7958B",
"iX c #B6958D",
"pX c #AA9B95",
"aX c #B0938D",
"sX c #B6A59C",
"dX c #ADACAC",
"fX c #A4A5A5",
"gX c #B7AAA6",
"hX c #BDB1A8",
"jX c #B4B5B4",
"kX c #BBBBBC",
"lX c #B9B7B6",
"zX c #9FA0A0",
"xX c #C3B2AA",
"cX c #C4BEBA",
"vX c #C7BCB5",
"bX c #D2BAB5",
"nX c #D9938A",
"mX c #C8C2BD",
"MX c #D7C3BD",
"NX c #FFDE95",
"BX c #BFC0C1",
"VX c #C4C4C4",
"CX c #CBCCCC",
"ZX c #CBC8C5",
"AX c #D5CAC6",
"SX c #DED9D6",
"DX c #DCD6D2",
"FX c #D3D0CF",
"GX c #E0DAD5",
/* pixels */
". . . . . . . . . + . . + X . + . . . . . . O . . . . . + + X X . o . . . o . . . . o . X .     ",
"X o . . . . . . . . + . X X . . . . . + . . . . . + . . . . X X . . o o . . . . . o . + X o     ",
"X X . . . + + . . . . . X . . . . + . . . . . . . . o . . . . . . . . . O o X . X X . + X o     ",
"X X X . + . o . . . . . X . + . + . + . . . . . + . X . + . + . . . . O $ < . . . X o X X o     ",
"+ . . . X X X . o X X X o . . X X X # . . . . . . $ - - . . . . . - ; ; O < ; ; , - . . . .     ",
". . . . X X + . . o X X . . X X X X . . o . X . $ : < < , , ; - o ; : . o o - 2 : , ; ; - -     ",
". . . + . + X . . . . . . o X X X . . . . X X . o o X o X X o O . . o . . . . o o o o O o o     ",
". + . . . . . . o . o . X . X X . X . . o X X X X . X O o . . . . . . . - - - O . o o . . .     ",
"+ , X X , z z z 1 . . . o o . O + O O O + + = + O $ < i - . $ $ O $ 1 v Z z z h z h z z 3 h z   ",
"3 Z v b D =.R ;.S . $ O & & & & . o o o . o o . . , , = . + - - - ; Z #.A S S S D S D S S S =.  ",
"h ;.-.-.*.R S S n . . . + + X . * <.-.-.$.$.$.$.-.-.=.#.O.O.O.d R A z 3 4 4 4 w w 4 w x w w x   ",
"1 -.;.1.1.A Z A v Z -.#._.[.`.[.2.>.-.-.5X5X].3X=.;.#.X.].`.]._.B R n 4 x 4 2 # @ @ # # @ @ 7   ",
"1 -._ aXG.G ' S Z A 4.>.3X2X2X2X<X@.-.@..X-X1X-X`.O.} | >X=X1X<X .#.Z e x w g o ; : - : $ 8     ",
"1 ;.@.S.G.m ' S z M *.:.O.5X1X1X*X`.O.R k :X1X1X,X .B d X.1XqX<X;Xp n 5 4 4 v Z v c < < - O     ",
"1 =.l C.F.m #.R * j.`.+.R %.qX1X=X,Xo.#.d b.$X$X=X;Xd } p [.=X1X=X'.y m r r Z V Z Z c g g -     ",
"1 E l C.F.E A } * j.;X` ..` X.;X@X;X_.l | s '.oX).#X{._ X.X.+X+X#X+X{ 6 T T W Y Y n z + O >     ",
"i S C &.d.E D } O o.#X).U.[ L.^.oX^.).{.d | s XX+XoX(.[ R.oXR.XX}.+X/.U Q P L Q T W m < : 8     ",
"2 Z S A l D Z S = o.*X&Xj.p ..[ OX#X$X,XW n y n.,XOXOX Xu R.j  X$X&X/.U t.t.P e.I ! T 9 8 8     ",
", e v n D S Z R = j.%X*X:Xv ) _ n.<X.X,XXXp { p  X$X%X$X_.y N h }.#Xk.9.i.y.w.r.e.~ Q b h h     ",
", h 2 v S S =.=.u o.&X&X*X Xu { p  X,X>X%X_.p M n #X%X%X:XR n p n.}.k.9.y.M.M.M.u.a.e.K 6 9     ",
", z 2 Z -.R #.=.D u 4X<X>X*XX.f Z E #X$X$X#X| N a b.,X%X>X Xf ;.O.|.|.l.M.nXNXG.g.s.a.H 6 2     ",
", x z Z -.S n Z v i B } { o. .h E <.:.2.3.3.4.<.<.;.2.X.X.2.R D S ! z.s.y.M.|.h.u.s.e.H 5 2     ",
", v z Z -.S v v b 3 2 * * y y e A } B f B k A S S R k d p p v v m Y K e.g.y.h.y.s.a.! r x h     ",
"1 v z b #.S h v v D =.=.=.| } *.v , e t t t 1 2 2 e M N D S Z n i 5 T L e.e.s.s.a.Q J 3 3 b z   ",
", V b c z v 6XdXmXVXCXCXCXFXCXCXVXlXdXdXdXjXjXlXjXkXVXVXCXZXvXsX8X1.6 T Q L L L K J 6 # . 4 b   ",
"O z b v h n Z.hXFXSXSXSXSXSXSXSXSXFXCXCXCXCXFXCXCXCXCXZXVXcXxXsXiXS.+ Y Y H J J J m x j < 4 m   ",
". o 2 c 0 Z gXmXhXeXlXVXVXBXCXmXuXvXCXcXhXhXhXhXgXgXgXgXgXsXpXaXsXeX. n n 4 r m 5 z h j g x N ; ",
"o % % . . F BXCXxX8XdXfXdXjXjXjXuXmXVXD.m.c.x.x.x.c.x.x.x.c.c.u.pXtX. n z 1 z z 1 1 ,.<.S n c   ",
"# X % / T.Y.kXCXcXlXwX-.4.tXsXiXiXmXcXr.0.w.q.q.q.q.q.q.8.q.p.7.uXfX. b 1 z z z z O <.wX4.O 1   ",
". . T.^.~.T.kXVXvXwX, #.# >.aXH.v.xXcXB.a.f.d.d.d.d.d.d.d.d.l.6.sXdX. i z z v z z . 4.yX4..     ",
"X Y.^.^.T.E.kXBXcX5.. Z 5 u 8XnXJ.xXZXiX7X7XA.9XA.A.7X7XA.7X7XS.vXdX. z z z z z 1 1 -.<.*.9     ",
"X Q.!.Q.Q.E.kXVXcXwX. z . ,.aXH.V.vXVXV.p.g.i.i.i.i.i.i.i.i.g.0.gXjX. v z z v b 1 h > g g g     ",
"X T.I.K.~.E.lXBXmXjX3.h S pXkXdXiXAXFXe.6.8.7.7.8.7.7.7.8.7.9.6.gXBX. z c c b z i z h 9 9 <     ",
". q X ) !.E.mXVXhX8XmXkXkXVXVXcX6XxXAXS.l.N.N.N.l.N.D.N.N.N.N.N.xXkX. z b z z b z z 1 < ; <     ",
"O o X K.!.E.uXxXvXiXmXmXmXmXZXMXsXmXCXZXMXMXMXMXbXAXAXMXAXAXAXAXMXuX. i c v v z i z , o O O     ",
"; q ; - Q.T.E Z.yXrXrXrXrXrXyXyXyXyXyXyXtXtXtXtXtXtXtXpXtXpXtXfX5.| x 1 z z z z 1 1 : : < 9     ",
"X % . . T.Q.e . . . . . . . . . . . . . . . . . . . . . . . . . . h v Z Z 1 . - - ; ; < : <     ",
"X X X . T.!.Y./ / / ) / / / / ) / / / / / / ) F z z z z z z c c z 3 1 2 1 - . O - $ $ $ - -     ",
"X X X $ ] P.Y.L.L.L.K.K.K.K.K.K.K.L.P.P.) ] q - - o ; ; $ - o O - $ - - - $ - o O - $ - o O     ",
"X X X O % > 8 ; ; > : $ O < : : > o $ > > > < < ; o o < ; : - - < : ; < < < < O ; < < < - ;     ",
". . . . . o o ; ; ; ; $ . . O ; - . . . X O - O 2 + . + ; ; $ , < , ; , ; ; 2 O ; ; ; < O ;     ",
". . . . . . o # X X . . . . . . . # . . . . X X o . . . X X . + o X X . $ < ; + . X . . . o     ",
". . . . X X . . . X X X . + . . . . . . o . o X o X X . X X + . X . X . O ; O . . . X X . .     ",
". . . X X X . . X X X . . . . . . . . . . o X X X X . X X X . . . X X . . . X X . . X X o o     ",
"+ + . . X X X . . . . + + + . + + X X X + . . . X . . . . + . . . . . o . + + X . . . . . +     ",
". . X + X X . . . . . . . . X X . + X X . . . + X X . . . . . . X . o . . . + X . . X X . +     ",
". . X X + X . + + . . . . . X X + . . . . . . . + . . . . . . . X X . . + . . . . . X X X +     ",
". X X X . . + . . . . . + . X X . . . + . . X X X . + . + . . + X o . o . . . . + . X X X +     "
};
