/* XPM */
static char *_e83a37c41fb43f38cb6dc2850b75bbcvuf2cJDC7eyob1yN[] = {
/* columns rows colors chars-per-pixel */
"48 48 84 1 ",
"  c #000003",
". c #000D03",
"X c #090807",
"o c #061203",
"O c #0B1304",
"+ c #061903",
"@ c #0E1B03",
"# c #141504",
"$ c #1A1704",
"% c #171C03",
"& c #1D1A04",
"* c #231904",
"= c #2B1D05",
"- c #321E05",
"; c #3B1D05",
": c #2D2205",
"> c #2D2508",
", c #332306",
"< c #3E2206",
"1 c #352A07",
"2 c #3B2A07",
"3 c #3F3408",
"4 c #422406",
"5 c #482504",
"6 c #472807",
"7 c #412708",
"8 c #4C2509",
"9 c #442A08",
"0 c #4C2C09",
"q c #522E0A",
"w c #433308",
"e c #4F3208",
"r c #433A09",
"t c #553606",
"y c #55320B",
"u c #59360C",
"i c #533A0A",
"p c #5C3B0C",
"a c #603F0D",
"s c #524807",
"d c #56400D",
"f c #5E410C",
"g c #5E4E0D",
"h c #5E4C10",
"j c #65440D",
"k c #68470D",
"l c #67490D",
"z c #6A4B0E",
"x c #61510F",
"c c #6D500E",
"v c #644C10",
"b c #6F4B14",
"n c #714F12",
"m c #635111",
"M c #6C5212",
"N c #725212",
"B c #7A5617",
"V c #755A12",
"C c #795E13",
"Z c #725918",
"A c #76620F",
"S c #766010",
"D c #7C6414",
"F c #7F6916",
"G c #806716",
"H c #826A16",
"J c #85661A",
"K c #856818",
"L c #8B6E1B",
"P c #897018",
"I c #93721E",
"U c #8B6524",
"Y c #916827",
"T c #966B29",
"R c #9A6D2A",
"E c #997623",
"W c #A17628",
"Q c #A37B28",
"! c #AA7D2B",
"~ c #B2812F",
"^ c #B68330",
"/ c #BB8633",
"( c #BE8934",
") c #C28B36",
/* pixels */
"XX                                             X",
"O >hmvmURTTTTTRYMsmUTTTRUxxxMYRYMlmMdimURTTRTVr ",
"$ wFPHF!)/////)^PKQ))(/(!HDDK~)^LGHHZNF!)/^/~Ig ",
"$ 3FPDbbNNnNNNnNSQ))QDNNnzpupbNNnzzzbvznnNNNNNi.",
"% 1NVNzjjjpttu0jW))QGlljjpqqqyflkkzkzzzjjjjatp9o",
"#o,jvkjzzztqqq5n()QDcjjjaqyyyqpjzzkkjjzzzlzjtp6o",
"#.,lzjyjnkpqyqtB/!Sbljuyyyyyyyyukzkyypzzzlzzznt.",
"$.1zkuyuazaqqpzGEJczjuyyyyyyyqujzzjq8yzzkpkcza6o",
"#.,jpqyqujuyfNDHAzkjuqyyyqpuyujzzzzlvlzkaqakju<O",
"$O=eyyyyuqqpzFHFzzkyyyyyyyjjykzzzzzHKDzpqyyqyu2O",
"#o=euyyyyqakzHDNzjuyyyyqujzzjzkpujbNNMzpquuqyu7O",
"$O=yqqqqypbkjNMjjpqqyyyyjVzzzjpqqpjklzzpqqququ<O",
"#O=yuuuuazzjq0akuqyuyyyjVHNkkuyyuqukvbkpqquqyu4O",
"$O*8MDDGCzbjqquuyqujuyjVHHNjuyyyqqyujkpuuuyq44,#",
"#.,vDHDCVzjpyyyqqujzjjVHHVjuqyqyapqqaaqqyuu0<4-O",
"$ 3HLCvjkkuqyyyyyjzzzNHHClpyyyypzaquqqyyyyq044-#",
"$ 3FCzzzjyyyyyqyjzzjVHHVzzjzjypzpyyyyyyuq44444-#",
"#.1NNkzjpyyyyyujzzzVGGVzzzzzzjjpyyyyyyyq644444-#",
"$.,jzzzpqyqyyyjzzzVHHDkkzzzzzzpyyyyyyyy4<<4444,#",
"#.1kzzza0440ujzzjVHGHDzzzzzzkpyyyyyyyq44444444=#",
"$.1kzzpu0<<46lzcCCVFHFzzzzzbvuqyyyyy064<444<44-O",
"#.,jkjyq04<4ejjzSVNGGVjjjzzkjuqyyyyy6<<44<4444-#",
"#o=yyyy8<4;yzuyukCKHVjyqpzzjquuyyyy44<<4444444-#",
"$#&-=,y4;<izzu8yVHHVjuyqpzzjqqyuu04<6yq6<<<<40<O",
"#$#.:wyyytlvayuMHHVjuqyujzzjyyqq0066yyq640660u6o",
"#$#OizyjzzzjqqMHHBauqqujzzzjyy04<0yyyy440yyyyy7o",
"$.,fjuyuppuyqVHHVjuqqujzjpuuq04<qyyy04<6qyyyy0-#",
"#.,jpq0yyq0pbCDVjuquqazkpyqyy440yyuy066yuyq0q4=#",
"#O=0yq40yyyMHNkjyqyyqpvpqyyyy40yyyyyyyyyyy4444-#",
"$O=y0440qqVKHjquu0440uuuyyuuyqyyuq44qyyyq44444-#",
"#O=y646qyjMVcpqq0446qyyyy000yyyy04<<yjyq0<444,*#",
"#O=y04uyazu8qyyq4<0yyyyy0<<0yyyy4<<<pzy4<444<*O#",
"$O*446yjzzpqyyq4<8yyyyu0440yyyyq4;;;plu644454$o%",
"##*4<8yjzpq000440qyyyy6440yyyyyyeufpjay644-==4,#",
"##*<44yjj04<<<44qyyqy0440yyyyyyyefllu0y6<<$#=y7O",
"##*<46yuy44444444eyy0440yyyyyyyy44684444-#.,y4-#",
"$#*<46y044444<<40yy04;4qyyyyyyyy44<;44<4699604-#",
"$O*<<6y6<<444640yye444<eyyyyyyq044<444446yy0<4-#",
"$O*<46y0<44<4yyyyue44440yyyyyyq444<4<444444444=#",
"##*<6yy6<4<60yuy6684<4eyuyyuyq4444444<=<444<44-#",
"$O*4yyq4<44quqq04;<<40yyq00q04<444<4<:%,<<4444-#",
"%O=yyq44<4quy44444440uy6<44<4444<444,%:&:44744-O",
"#o=yq444446444<44<44yy68<*$-44444444:@%+,y6<44-#",
"##=06<44<,<44444444406-,=o*-4444444<<27<606<44-#",
"$#*<4444-#<4444444444-#O#$<44444<4440yyy04<4<4,#",
"##*<44**$$<444444444-$$O=<44444444440466644444-#",
"##$--=#O##=,-------,*O$#*----=----,-=-=-------=#",
"$$##O#$$#$#O##O#O####$#$######O###O#####O##O####"
};
